<?xml version="1.0" encoding="utf-8"?>
<!-- Generator: Adobe Illustrator 20.1.0, SVG Export Plug-In . SVG Version: 6.00 Build 0)  -->
<svg version="1.1" id="Layer_1" xmlns="http://www.w3.org/2000/svg" xmlns:xlink="http://www.w3.org/1999/xlink" x="0px" y="0px"
	 viewBox="0 0 36 36" style="enable-background:new 0 0 36 36;" xml:space="preserve">
<style type="text/css">
	.st0{fill:#1E3E5B;}
</style>
<g>
	<path class="st0" d="M24.8,13.5c-3.1,0-5.6,2.5-5.6,5.6c0,0.2,0.2,0.5,0.5,0.5s0.5-0.2,0.5-0.5c0-2.6,2.1-4.7,4.7-4.7
		s4.7,2.1,4.7,4.7c0,0.2,0.2,0.5,0.5,0.5c0.2,0,0.5-0.2,0.5-0.5C30.4,16,27.9,13.5,24.8,13.5z"/>
	<path class="st0" d="M12,13.5c-3.1,0-5.6,2.5-5.6,5.6c0,0.2,0.2,0.5,0.5,0.5s0.5-0.2,0.5-0.5c0-2.6,2.1-4.7,4.7-4.7
		s4.7,2.1,4.7,4.7c0,0.2,0.2,0.5,0.5,0.5c0.2,0,0.5-0.2,0.5-0.5C17.6,16,15.1,13.5,12,13.5z"/>
	<path class="st0" d="M27.2,17.8c-0.2,0-0.5,0.2-0.5,0.5v4.2h-3.9v-4.2c0-0.2-0.2-0.5-0.5-0.5c-0.2,0-0.5,0.2-0.5,0.5v12.9
		c0,0.2,0.2,0.5,0.5,0.5c0.2,0,0.5-0.2,0.5-0.5v-7.8h3.9v7.8c0,0.2,0.2,0.5,0.5,0.5c0.2,0,0.5-0.2,0.5-0.5V18.3
		C27.7,18,27.5,17.8,27.2,17.8z"/>
	<path class="st0" d="M14.4,17.8c-0.2,0-0.5,0.2-0.5,0.5v4.2h-3.9v-4.2c0-0.2-0.2-0.5-0.5-0.5S9.1,18,9.1,18.3v12.9
		c0,0.2,0.2,0.5,0.5,0.5s0.5-0.2,0.5-0.5v-7.8h3.9v7.8c0,0.2,0.2,0.5,0.5,0.5c0.2,0,0.5-0.2,0.5-0.5V18.3
		C14.9,18,14.7,17.8,14.4,17.8z"/>
	<path class="st0" d="M24.8,13c1.5,0,2.7-1.2,2.7-2.7s-1.2-2.7-2.7-2.7S22,8.7,22,10.2S23.3,13,24.8,13z M24.8,8.4
		c1,0,1.8,0.8,1.8,1.8S25.8,12,24.8,12c-1,0-1.8-0.8-1.8-1.8C23,9.2,23.8,8.4,24.8,8.4z"/>
	<path class="st0" d="M12,13c1.5,0,2.7-1.2,2.7-2.7S13.5,7.5,12,7.5s-2.7,1.2-2.7,2.7S10.5,13,12,13z M12,8.4c1,0,1.8,0.8,1.8,1.8
		S13,12,12,12s-1.8-0.8-1.8-1.8C10.2,9.2,11,8.4,12,8.4z"/>
	<path class="st0" d="M19.5,7.8h0.4v0.4c0,0.2,0.2,0.5,0.5,0.5s0.5-0.2,0.5-0.5V7.8h0.4c0.2,0,0.5-0.2,0.5-0.5s-0.2-0.5-0.5-0.5
		h-0.4V6.5c0-0.2-0.2-0.5-0.5-0.5s-0.5,0.2-0.5,0.5v0.4h-0.4c-0.2,0-0.5,0.2-0.5,0.5S19.3,7.8,19.5,7.8z"/>
	<path class="st0" d="M18.3,4.4h-0.9V3.5c0-0.2-0.2-0.5-0.5-0.5c-0.2,0-0.5,0.2-0.5,0.5v0.9h-0.9c-0.2,0-0.5,0.2-0.5,0.5
		s0.2,0.5,0.5,0.5h0.9v0.9c0,0.2,0.2,0.5,0.5,0.5c0.2,0,0.5-0.2,0.5-0.5V5.3h0.9c0.2,0,0.5-0.2,0.5-0.5S18.5,4.4,18.3,4.4z"/>
</g>
</svg>
