<?xml version="1.0" encoding="utf-8"?>
<!-- Generator: Adobe Illustrator 20.1.0, SVG Export Plug-In . SVG Version: 6.00 Build 0)  -->
<svg version="1.1" id="Layer_1" xmlns="http://www.w3.org/2000/svg" xmlns:xlink="http://www.w3.org/1999/xlink" x="0px" y="0px"
	 viewBox="0 0 468 468" style="enable-background:new 0 0 468 468;" xml:space="preserve">
<style type="text/css">
	.st0{fill:#1E3E5B;}
</style>
<circle class="st0" cx="125.4" cy="256.8" r="3.7"/>
<circle class="st0" cx="160.1" cy="256.8" r="3.7"/>
<path class="st0" d="M142.8,369.5c28.2,0,51.2-23,51.2-51.2V304l0.8-0.2c13-2.4,22.5-13.8,22.5-27.1c0-5-1.4-9.9-3.9-14.1L213,262
	l0.4-0.5c11.3-14,17.5-31.2,17.5-48.5c0-17.7-6.1-34.5-17.6-48.6c-11.2-13.7-27-24-44.7-29l-1.1-0.3l0.4-1c1.2-3.1,1.8-6.3,1.8-9.4
	c0-14.6-12.2-26.5-27.1-26.5s-27.1,11.9-27.1,26.5c0,3.1,0.6,6.3,1.8,9.4l0.4,1l-1.1,0.3c-17.7,5-33.5,15.3-44.7,29
	c-11.5,14.1-17.6,30.9-17.6,48.6c0,17.3,6.2,34.5,17.5,48.5l0.4,0.5l-0.4,0.6c-2.6,4.3-3.9,9.2-3.9,14.1c0,13.3,9.5,24.7,22.5,27.1
	l0.8,0.2v14.3C91.5,346.5,114.5,369.5,142.8,369.5z M142.8,106.7c10.3,0,18.6,8.1,18.6,18c0,2.8-0.6,5.4-1.9,7.9l-0.3,0.6l-0.7-0.1
	c-0.1,0-0.2,0-0.3,0c-2.4-0.4-4.9-0.7-7.3-0.9l-0.6,0c-2.7-0.2-5.1-0.3-7.4-0.3c-2.3,0-4.7,0.1-7.5,0.3l-0.6,0
	c-2.4,0.2-4.9,0.5-7.4,0.9c0,0-0.1,0-0.2,0l-0.7,0.1l-0.4-0.6c-1.3-2.5-1.9-5.1-1.9-7.9C124.1,114.8,132.5,106.7,142.8,106.7z
	 M63,213c0-16.6,6.3-32.9,17.8-45.8c11.3-12.7,27.1-21.6,44.5-25.2c1.4-0.3,2.7-0.5,4.1-0.7l0.1,0c7.3-1.1,14.6-1.3,21.9-0.6l0.1,0
	c1.4,0.1,2.8,0.3,4.2,0.5l0.2,0c1.3,0.2,2.7,0.4,4,0.7c17.4,3.5,33.2,12.5,44.6,25.2c11.5,12.9,17.9,29.2,17.9,45.8
	c0,14.8-5.1,29.6-14.5,41.7l-0.6,0.8l-0.8-0.6c-0.1-0.1-0.1-0.1-0.2-0.1c-0.1-0.1-0.2-0.1-0.3-0.2c-0.5-0.4-1-0.7-1.6-1.1l-0.3-0.2
	c-0.2-0.1-0.3-0.2-0.5-0.3c-0.7-0.4-1.5-0.8-2.4-1.3c-0.2-0.1-0.5-0.2-0.7-0.3l-0.2-0.1c-0.7-0.3-1.3-0.5-1.9-0.7l-0.1,0
	c-0.3-0.1-0.5-0.2-0.8-0.2c-1-0.3-2-0.5-2.8-0.7l-0.8-0.2v-23c0-28.3-23-51.2-51.2-51.2s-51.2,23-51.2,51.2v23l-0.8,0.2
	c-0.9,0.2-1.8,0.4-2.8,0.7c-0.2,0.1-0.5,0.1-0.7,0.2l-0.2,0.1c-0.6,0.2-1.2,0.4-1.9,0.7l-0.3,0.1c-0.2,0.1-0.4,0.2-0.6,0.3
	c-0.9,0.4-1.7,0.8-2.4,1.3c-0.2,0.1-0.3,0.2-0.5,0.3l-0.3,0.2c-0.7,0.4-1.1,0.8-1.6,1.1c-0.1,0.1-0.2,0.1-0.3,0.2
	c-0.1,0-0.1,0.1-0.2,0.1l-0.8,0.6l-0.6-0.8C68.1,242.6,63,227.8,63,213z M76.7,276.7c0-5,1.9-9.7,5.5-13.3c0.1-0.1,0.1-0.2,0.2-0.2
	c0.7-0.7,1.6-1.5,2.6-2.1L85,261c0.1-0.1,0.2-0.1,0.3-0.2c0.9-0.6,1.9-1.1,2.9-1.6c0.1-0.1,0.3-0.1,0.4-0.2c1.1-0.5,2.2-0.8,3.2-1
	c0.1,0,0.2,0,0.3,0l0.1,0c1.3-0.2,2.4-0.4,3.6-0.4c2.3,0,4.3-1.9,4.3-4.3v-27c0-23.6,19.2-42.7,42.7-42.7s42.7,19.2,42.7,42.7v27
	c0,2.3,1.9,4.3,4.3,4.3c1.1,0,2.3,0.1,3.6,0.4l0.1,0c0.1,0,0.2,0,0.3,0c1,0.2,2.1,0.6,3.2,1l0.1,0c0.1,0,0.2,0.1,0.3,0.1
	c1,0.4,2,1,2.9,1.6c0.1,0.1,0.2,0.2,0.4,0.3c1,0.7,1.8,1.4,2.6,2.1c0,0.1,0.1,0.1,0.1,0.2c3.6,3.6,5.5,8.4,5.5,13.4
	c0,10.5-8.6,19.1-19.1,19.1c-2.3,0-4.3,1.9-4.3,4.3v18.2c0,23.6-19.2,42.7-42.7,42.7S100,341.8,100,318.2V300c0-2.3-1.9-4.3-4.3-4.3
	C85.3,295.8,76.7,287.2,76.7,276.7z"/>
<path class="st0" d="M140.1,317.2c-4.6-0.7-8.9-3-12.9-6.9c-0.8-0.8-1.9-1.2-3-1.2c-1.1,0-2.2,0.4-3,1.2c-0.8,0.8-1.2,1.9-1.2,3
	c0,1.1,0.4,2.2,1.2,3c6.3,6.3,13.8,9.7,21.6,9.7c7.8,0,15.2-3.4,21.5-9.7c0.8-0.8,1.2-1.9,1.2-3c0-1.1-0.4-2.2-1.2-3
	c-1.7-1.7-4.4-1.7-6,0c-2.2,2.2-4.6,3.9-7.1,5.1l-1,0.5l-5.4-15.5l11-5.3c1.2-0.6,2.1-1.8,2.3-3.1c0.2-1.3-0.2-2.7-1.1-3.7
	c-0.1-0.1-13-14.8-10-61.6c0.1-1.1-0.3-2.2-1-3.1s-1.8-1.4-2.9-1.4c-1.1-0.1-2.2,0.3-3.1,1c-0.9,0.8-1.4,1.8-1.5,3
	c-2.4,36.3,4.3,54.7,8.6,62.5l0.5,0.9l-9.9,4.8c-1.9,0.9-2.9,3.2-2.2,5.2l6.2,17.8L140.1,317.2z"/>
<path class="st0" d="M342.1,319c-4.6-0.7-9-3.1-12.9-6.9c-0.8-0.8-1.9-1.2-3-1.2c0,0,0,0,0,0c-1.1,0-2.2,0.4-3,1.2
	c-0.8,0.8-1.2,1.9-1.2,3c0,1.1,0.4,2.2,1.2,3c6.3,6.3,13.8,9.7,21.5,9.7c7.8,0,15.2-3.4,21.5-9.7c0.8-0.8,1.2-1.9,1.2-3
	c0-1.1-0.4-2.2-1.2-3c-0.8-0.8-1.9-1.2-3-1.2c0,0,0,0,0,0c-1.1,0-2.2,0.4-3,1.3c-2.2,2.2-4.6,3.9-7.1,5.1l-1,0.5l-5.4-15.5l11-5.3
	c1.2-0.6,2-1.7,2.3-3.1c0.3-1.3-0.1-2.7-1.1-3.7c-0.1-0.1-13.1-14.7-10-61.6c0.1-1.1-0.3-2.2-1-3.1s-1.8-1.4-2.9-1.4
	c-1.1-0.1-2.2,0.3-3.1,1c-0.9,0.8-1.4,1.8-1.5,2.9c-2.4,36.3,4.3,54.7,8.6,62.5l0.5,0.9l-9.9,4.8c-1.9,0.9-2.9,3.2-2.2,5.2l6.2,17.8
	L342.1,319z"/>
<circle class="st0" cx="327.4" cy="258.5" r="3.7"/>
<circle class="st0" cx="362.2" cy="258.5" r="3.7"/>
<g>
	<polygon class="st0" points="410.3,256.7 410.3,256.7 410.3,256.7 	"/>
	<path class="st0" d="M419.6,226.4l-0.7-0.1l-0.2-0.7c-2.2-8.7-10-14.9-19.1-14.9c-1.8,0-3.6,0.3-5.5,0.8l-0.9,0.3L393,211
		c-7.3-20.4-26.7-34.1-48.2-34.1c-21.5,0-40.9,13.7-48.2,34l-0.3,0.9l-0.9-0.3c-1.9-0.5-3.7-0.8-5.5-0.8c-9,0-16.9,6.1-19.1,14.9
		l-0.2,0.7l-0.7,0.1c-12.3,1.6-21.6,12.1-21.6,24.5c0,12.2,9.1,22.7,21.1,24.4l0.9,0.1l-0.1,0.9c0,0.6-0.1,1.3-0.1,2
		c0,13.3,9.5,24.7,22.5,27.1l0.8,0.2V320c0,28.3,23,51.2,51.2,51.2c28.3,0,51.2-23,51.2-51.2v-14.3l0.8-0.2
		c13-2.4,22.5-13.8,22.5-27.1c0-0.7,0-1.4-0.1-2l-0.1-0.9l0.9-0.1c12.1-1.8,21.1-12.3,21.1-24.4C441.3,238.5,432,227.9,419.6,226.4z
		 M276.7,260.7c-0.2,0.3-0.5,0.6-0.7,0.9l-0.1,0.2c-0.3,0.4-0.6,0.9-0.9,1.3c-0.2,0.3-0.4,0.7-0.6,1c-0.5,0.7-0.8,1.5-1.2,2.2
		c0,0.1-0.1,0.1-0.1,0.2l-0.3,0.6l-0.7,0c-8.5-0.6-15.1-7.7-15.1-16.2c0-8.9,7.3-16.2,16.2-16.2c0.3,0,0.5,0,1,0.1l0.1,0
		c1.2,0.1,2.3-0.3,3.2-1.1c0.9-0.8,1.3-1.9,1.3-3.1l0-0.2c0.1-6.1,5.1-11,11.1-11c1.2,0,2.4,0.2,3.5,0.6l0.8,0.3l-0.1,0.8
		c0,0.2,0,0.4-0.1,0.5l0,0.4c-0.1,0.6-0.1,1.2-0.2,1.8c-0.2,1.7-0.2,3.1-0.2,4.5v23l-0.8,0.1c0,0-0.1,0-0.1,0
		c-0.8,0.2-1.7,0.4-2.7,0.7c-0.3,0.1-0.5,0.2-0.8,0.3l-0.2,0.1c-0.6,0.2-1.1,0.4-1.6,0.6l-0.2,0.1c-0.3,0.1-0.6,0.3-0.9,0.4
		c-0.5,0.2-1.1,0.5-1.6,0.8c-0.6,0.3-1.2,0.7-1.9,1.2l-0.3,0.2c-0.2,0.2-0.5,0.3-0.7,0.5c-0.5,0.3-0.9,0.7-1.3,1
		c-0.2,0.2-0.5,0.4-0.7,0.6l-0.1,0.1c-0.5,0.4-0.8,0.8-1.2,1.1C277.7,259.6,277.2,260.1,276.7,260.7z M405.3,291.9
		c-3.6,3.6-8.4,5.6-13.5,5.6c-2.3,0-4.3,1.9-4.3,4.3V320c0,23.6-19.2,42.7-42.7,42.7c-23.6,0-42.7-19.2-42.7-42.7v-18.2
		c0-2.3-1.9-4.3-4.3-4.3c-10.5,0-19.1-8.6-19.1-19.1c0-2.2,0.4-4.5,1.3-6.7c0.2-0.4,0.3-0.8,0.5-1.3c0.3-0.7,0.7-1.4,1.1-2l0.1-0.2
		c0.1-0.2,0.2-0.4,0.4-0.6c1.3-1.9,2.9-3.5,4.8-4.8c0.1-0.1,0.2-0.2,0.4-0.2l0.2-0.1c0.8-0.5,1.6-0.9,2.4-1.3
		c0.3-0.1,0.6-0.3,0.9-0.4c0.7-0.3,1.5-0.5,2.4-0.7l0.3-0.1c0.2-0.1,0.5-0.1,0.7-0.2c1.3-0.2,2.4-0.4,3.5-0.4c2.3,0,4.3-1.9,4.3-4.3
		v-27c0-3,0.3-6.1,1-9.2c4.3-19.4,21.8-33.5,41.7-33.5c20,0,37.6,14.2,41.8,33.8c0.1,0.5,0.2,1.1,0.3,1.6l0.1,0.6
		c0.4,2.4,0.6,4.6,0.6,6.6v27c0,2.3,1.9,4.3,4.3,4.3c1.1,0,2.3,0.1,3.6,0.4c0.2,0,0.4,0.1,0.5,0.1l0.3,0.1c1,0.2,1.8,0.5,2.6,0.8
		c0.2,0.1,0.5,0.2,0.7,0.3c1,0.5,1.9,1,2.8,1.5l0.2,0.1c2,1.4,3.7,3.1,5.1,5.1c0,0.1,0.1,0.1,0.1,0.2c0.6,0.9,1.1,1.8,1.5,2.8
		c0.1,0.2,0.2,0.5,0.3,0.7c0.9,2.3,1.4,4.7,1.4,7C410.8,283.5,408.9,288.3,405.3,291.9z M417.6,267.1l-0.7,0l-0.3-0.6
		c-0.1-0.3-0.3-0.6-0.5-0.9c-0.1-0.2-0.2-0.4-0.3-0.6l-0.1-0.2c-0.1-0.1-0.2-0.3-0.2-0.4c-0.3-0.5-0.7-1.1-1.1-1.7l-0.2-0.3
		c-1.3-1.8-2.8-3.5-4.5-4.9l-0.1-0.1c-0.6-0.5-1.2-0.9-1.8-1.4l-0.1-0.1c-1.1-0.8-2.3-1.5-3.7-2.2l-0.4-0.2c-0.5-0.2-1-0.4-1.5-0.7
		c-0.4-0.2-0.8-0.3-1.2-0.4c-0.5-0.2-0.9-0.3-1.4-0.4c-0.6-0.2-1.3-0.3-2.1-0.5c-0.1,0-0.2-0.1-0.3-0.1c-0.1,0-0.2,0-0.2-0.1
		l-0.8-0.1v-23c0-1.5-0.1-3.1-0.3-4.9l-0.1-0.7c0-0.2,0-0.4-0.1-0.6c0-0.3-0.1-0.6-0.1-1l-0.1-0.8l0.8-0.3c1.1-0.4,2.3-0.6,3.5-0.6
		c6.1,0,11.1,4.9,11.1,11l0,0.2c0,1.1,0.5,2.2,1.5,3.1c0.8,0.8,2.1,1.2,3.3,1.1l0.1,0c0.3,0,0.5,0,0.8,0c8.9,0,16.2,7.3,16.2,16.2
		C432.8,259.4,426.1,266.5,417.6,267.1z"/>
</g>
<path class="st0" d="M327.3,133.1c0.1-8.1-2.6-15.1-7.5-19.3c-0.1-4.7-3.5-11.8-8.3-17.5c-5-5.9-10.9-9.4-16.6-9.8
	c-2.1-2.5-5.5-4.3-9.8-5.2c-3.9-0.8-7.8-0.7-10.7,0.3c-3.5-2.3-9-2.6-11.3-2.6c-2.4,0-10.4,0.3-15.4,4.2c-3.5-1.1-7.9-0.8-12.3,1
	c-4,1.6-7.2,4-8.9,6.7c-4,0.4-8.7,3.6-10.6,5c-6.4,4.8-13.5,13.1-14.2,21.9c-3.1,3.7-2.2,10.9-0.4,16c0.9,2.6,4.3,11,11.2,12.8
	c0.4,1.7,1.5,3.3,3.2,4.4c3.6,2.5,10,3.4,15.1,2.2c0.6,2,1.9,4.1,3.7,6.1c2.8,3.1,7.4,6.2,11.7,6c1,1.2,2.3,2,3.8,2.5
	c1.1,0.4,2.3,0.5,3.7,0.5c4.5,0,9.6-1.9,14.1-4.1c0,0.5,0,1.1,0.1,1.6c0,0,0,0,0,0c0.8,8.5,6,13.3,10.4,17.3c2.6,2.3,5,4.6,6,7.1
	c0.4,1.1,1.5,1.8,2.7,1.8c0.3,0,0.7-0.1,1-0.2c0.7-0.3,1.3-0.8,1.6-1.5s0.3-1.5,0.1-2.2c-1.4-3.8-4.4-6.5-7.5-9.3
	c-2.7-2.5-5.3-4.8-6.9-7.8c3.4,1.3,7.4,2.4,11.6,3c2.5,0.4,5,0.5,7.4,0.5c5.8,0,10.7-1.1,14.5-3.2c4.1-2.3,8.7-6.8,8.7-15.6
	c3.3-0.6,5.6-2.1,7-4.4c1.7-3,1-6.4,0.5-8C326.3,141,327.2,137.3,327.3,133.1z M319.4,148.5c-0.9,1.5-3.8,2.1-8.1,1.6
	c-17-1.7-31,0.6-41.7,6.7c-7.7,4.5-14.5,6.6-17.9,5.5c-0.4-0.1-0.8-0.3-1-0.6c4-9.6,13.7-14.3,14.1-14.5c0.7-0.3,1.2-0.9,1.5-1.6
	c0.3-0.7,0.2-1.5-0.1-2.2c-0.7-1.4-2.3-2.1-3.8-1.4c-0.3,0.1-4.4,2-8.7,6c-1.7-0.4-4.3-2-6.1-3.4c-0.6-0.5-1.3-0.7-2.1-0.6
	c-0.8,0.1-1.4,0.4-1.9,1c-1,1.2-0.8,3,0.4,4c0.6,0.5,2.9,2.3,5.5,3.5c-1.6,2-3,4.3-4.1,7c-1.7-0.2-4.5-1.6-6.8-4.1
	c-2.5-2.7-2.8-4.8-2.6-5.3c0,0,0,0,0,0c2.9-5.7,8.8-10.1,12.6-10.9c0.4-0.1,0.7-0.1,0.9-0.1c0.3,0,0.4,0,0.3,0
	c0.7,0.6,1.6,0.8,2.5,0.6c0.9-0.2,1.6-0.8,2-1.7c0.8-1.9,3.2-3.9,6.1-5c1.9-0.7,3.8-1,5.3-0.7c0.4,1.1,1,2.6,1.8,4.3
	c2,4.2,4.2,7.2,6.3,8.9c0.5,0.4,1.1,0.6,1.7,0.6c0.9,0,1.7-0.4,2.3-1.1c0.5-0.6,0.7-1.3,0.6-2.1c-0.1-0.8-0.5-1.4-1.1-1.9
	c-2.4-1.9-4.8-6.9-6.1-10c1.7-1.1,3.3-1.6,4.8-1.4c2.7,0.3,4.5,2.6,4.5,2.6c0.9,1.3,2.7,1.5,4,0.6c1.3-0.9,1.5-2.7,0.6-4
	c-0.3-0.4-3.3-4.3-8.4-4.9c-0.5-3.2,0.2-7.4,0.5-8.9c0.4-1.5-0.6-3.1-2.1-3.4c-0.7-0.2-1.5-0.1-2.2,0.3c-0.6,0.4-1.1,1-1.3,1.8
	c-0.1,0.3-1.4,5.9-0.6,11c-1.3,0.5-2.6,1.2-3.8,2.1c-2.6-0.7-5.8-0.4-9,0.9c-0.4,0.2-0.8,0.3-1.2,0.5c-3.6-2.4-7.7-8-9-10
	c-0.9-1.3-2.6-1.7-3.9-0.9c-1.3,0.9-1.7,2.6-0.9,3.9c0.2,0.3,4.1,6.3,8.8,10.2c-0.6,0.6-1.2,1.2-1.7,1.9c-0.9-0.1-1.9-0.1-2.9,0.1
	c-5.1,1-12.4,6.2-16.2,13.2c-2.9,1.7-9.5,1.4-12.4-0.6c-0.7-0.5-0.9-0.8-0.9-1.1c1.8-2.5,4-4.5,6.3-6.1c0.5,0.8,1.3,2.3,1.8,3.9
	c0.4,1.2,1.5,2,2.7,2c0.3,0,0.6,0,0.8-0.1c0.7-0.2,1.3-0.7,1.7-1.4c0.4-0.7,0.4-1.4,0.2-2.2c-0.4-1.3-1.1-3.4-2.3-5.1
	c4.6-2.3,8.4-3.2,8.5-3.2c1.5-0.3,2.5-1.8,2.2-3.4c-0.2-0.7-0.6-1.4-1.2-1.8c-0.6-0.4-1.4-0.6-2.1-0.4c-0.6,0.1-14.2,3.1-22.5,13.7
	c-3.3-0.8-6-5.2-7.4-9.2c-1.4-4-1.5-7.4-1.1-9.2c2.4,1,5,1.5,7.7,1.5c1,0,2-0.1,3-0.2c1.8,0.5,3.3,3.9,3.7,5.5
	c0.3,1.2,1.5,2.1,2.7,2.1c0.3,0,0.5,0,0.7-0.1c1.5-0.4,2.4-2,2-3.5c0-0.1-0.6-2.1-1.8-4.3c-0.3-0.5-0.6-1-0.9-1.5
	c4.3-1.7,7.1-3.9,7.3-4c1.2-1,1.5-2.8,0.5-4s-2.8-1.5-4-0.5c-0.1,0.1-9.9,7.5-19,3.5c0.7-4.5,4.1-11.1,11.8-16.9
	c3.3-2.5,5.7-3.4,7-3.8c0.9,2,2.1,3.9,3.4,5.6c-3.2,3.3-7.9,4.9-7.9,4.9c-1.5,0.5-2.3,2.1-1.8,3.6c0.4,1.2,1.5,1.9,2.7,1.9
	c0.3,0,0.6,0,0.9-0.1c0.7-0.2,6-2.1,10-6.1c0.7,0.7,1.4,1.3,2.1,1.8c0.8,5.9-1.1,10.4-1.1,10.4c-0.6,1.4,0,3.1,1.4,3.8
	c0.4,0.2,0.8,0.3,1.2,0.3c1.1,0,2.1-0.7,2.6-1.7c0.1-0.2,1.6-3.7,1.8-8.8c3.2,1.8,5.6,2.8,5.9,2.9c0.3,0.1,0.7,0.2,1,0.2
	c1.2,0,2.3-0.7,2.7-1.9c0.3-0.7,0.2-1.5-0.1-2.2c-0.3-0.7-0.9-1.2-1.6-1.5c-0.1-0.1-13.6-5.3-18.1-16c1-1.6,3.3-3.3,6.2-4.4
	c3-1.2,5.9-1.5,8.1-0.9c0.4,7.9-2.1,12.2-2.1,12.3c-0.8,1.3-0.4,3.1,0.9,3.9c0.5,0.3,1,0.4,1.5,0.4c1,0,1.9-0.5,2.4-1.4
	c0.1-0.1,1.3-2.1,2.1-5.7c3.4-0.1,7.7-0.8,8.2-0.9c0.8-0.1,1.4-0.5,1.9-1.1c0.4-0.6,0.6-1.4,0.5-2.1s-0.5-1.4-1.1-1.9
	c-0.6-0.4-1.4-0.6-2.1-0.5c-1.9,0.3-4.5,0.6-6.5,0.8c0.1-1.4,0.1-3,0-4.7c2.3-1.8,6.8-2.9,11.6-2.9c0.1,0,0.2,0,0.3,0
	c3.8,0,6.6,0.8,7.9,1.5c-0.4,4.5-1.5,8.8-2.9,12.5c-10.8,0.8-14.3,6.9-14.4,7.2c-0.8,1.4-0.2,3.1,1.1,3.9c0.4,0.2,0.9,0.3,1.4,0.3
	c1,0,2-0.6,2.5-1.5c0,0,1.6-2.7,6.7-3.8c-2.7,5.2-5.3,8.5-5.3,8.5c-0.5,0.6-0.7,1.3-0.6,2.1c0.1,0.8,0.4,1.4,1,1.9
	c0.5,0.4,1.1,0.6,1.8,0.6c0.9,0,1.7-0.4,2.2-1c0.3-0.3,4-4.9,7.3-12.1c2.8,4,7.3,5.7,10.1,6.1c0.1,0,0.2,0,0.4,0
	c1.4,0,2.6-1.1,2.8-2.5c0.2-1.6-0.9-3-2.5-3.2c-0.3,0-7.2-1-7.7-8.6c0.9-3.1,1.6-6.4,1.9-9.8c1.9-0.5,4.7-0.6,7.3,0
	c2.4,0.5,4.6,1.5,5.9,2.6c-4.7,5.6-10,4.3-10.2,4.2c-1.5-0.4-3.1,0.4-3.5,1.9c-0.2,0.7-0.1,1.5,0.2,2.2c0.4,0.7,1,1.2,1.7,1.4
	c0.2,0.1,1.5,0.4,3.5,0.4c0.8,0,1.8-0.1,2.9-0.3c0.5,2.7,1.6,4.8,3.5,6.3c1.8,1.4,4,2.1,6.8,2.1c2.4,0,4.2-0.6,4.3-0.6
	c1.5-0.4,2.4-2,1.9-3.5c-0.4-1.5-2-2.4-3.5-1.9c-1,0.3-4.2,0.8-5.9-0.5c-0.9-0.7-1.5-2.1-1.6-4c1.7-1.1,3.5-2.6,5.1-4.8
	c5.4,0.5,10,5,12.3,7.8c4.4,5.2,6.5,10.6,6.9,13.3c-14.7,7-24.3,2.1-25.2,1.5c-0.8-0.7-1.9-0.9-2.8-0.5c-0.7,0.3-1.3,0.8-1.6,1.5
	c-0.3,0.7-0.4,1.5-0.1,2.2c0.3,0.8,0.8,1.7,4,2.9c2.2,0.8,5.8,1.9,10.6,1.9c0.6,0,1.2,0,1.8-0.1c0.3,2.3,1.3,5.5,3.8,7.8
	c2.1,2,4.9,3,8.2,3c0.7,0,1.4,0,2.2-0.1c0.8-0.1,1.4-0.5,1.9-1.1c0.5-0.6,0.7-1.3,0.6-2.1c-0.1-0.8-0.5-1.4-1.1-1.9
	c-0.6-0.5-1.3-0.7-2.1-0.6c-2.6,0.3-4.6-0.1-5.8-1.3c-1.3-1.2-1.8-3-2-4.4c3.3-0.7,6.7-1.9,10.1-3.5c4.8,4.5,5.1,12.2,5.1,14.6
	c0,3.2-0.6,5.3-1.1,6.5c-20.9-5.8-35.3-2.2-36-2.1c-1.5,0.4-2.4,1.9-2.1,3.5c0.4,1.5,1.9,2.4,3.5,2.1c0.1,0,13.9-3.3,33.6,2.2
	C319.8,146,320,147.5,319.4,148.5z M287.7,168.3c-6.3-0.9-11.4-2.8-14.1-4.4c0-0.9,0-1.8,0.2-2.8c9.4-5,21.9-6.8,37-5.3
	c0.3,0,0.7,0.1,1,0.1c0,4.9-1.9,8.3-5.7,10.4C301.7,168.6,295.2,169.4,287.7,168.3z"/>
</svg>
