<?xml version="1.0" encoding="utf-8"?>
<!-- Generator: Adobe Illustrator 20.1.0, SVG Export Plug-In . SVG Version: 6.00 Build 0)  -->
<svg version="1.1" id="Layer_1" xmlns="http://www.w3.org/2000/svg" xmlns:xlink="http://www.w3.org/1999/xlink" x="0px" y="0px"
	 viewBox="0 0 36 36" style="enable-background:new 0 0 36 36;" xml:space="preserve">
<style type="text/css">
	.st0{fill:#f8cf1c;}
</style>
<path class="st0" d="M27.3,6.8H9.5c-1.7,0-3.1,1.4-3.1,3.1v12c0,1.7,1.4,3.1,3.1,3.1H11v4.7l5.5-4.7h10.8c1.7,0,3.1-1.4,3.1-3.1v-12
	C30.4,8.2,29,6.8,27.3,6.8z M29.3,22c0,1.1-0.9,1.9-1.9,1.9H16.5c-0.3,0-0.5,0.1-0.7,0.3l-3.6,3.1v-2.2c0-0.7-0.5-1.2-1.2-1.2H9.5
	c-1.1,0-1.9-0.9-1.9-1.9v-12C7.5,8.8,8.4,8,9.5,8h17.9c1.1,0,1.9,0.9,1.9,1.9V22z"/>
</svg>
