<?xml version="1.0" encoding="utf-8"?>
<!-- Generator: Adobe Illustrator 20.1.0, SVG Export Plug-In . SVG Version: 6.00 Build 0)  -->
<svg version="1.1" id="Layer_1" xmlns="http://www.w3.org/2000/svg" xmlns:xlink="http://www.w3.org/1999/xlink" x="0px" y="0px"
	 viewBox="0 0 36 36" style="enable-background:new 0 0 36 36;" xml:space="preserve">
<style type="text/css">
	.st0{fill:#1E3E5B;}
</style>
<path class="st0" d="M30.7,13.7c-0.2-2.1-1.3-4.1-3-5.4C26,7,24,6.4,21.9,6.7c-1.5,0.2-2.8,0.8-3.8,1.6c-0.4-0.3-1-0.7-1.3-0.9
	c-3.4-1.9-7.6-1.1-10,1.8c-1.6,2-2.1,4.4-1.4,7.2C5.7,18.1,6.7,19.7,8,21c0,0.7,0.3,1.5,0.9,2c0.4,0.4,0.9,0.6,1.5,0.7
	c0.1,0.6,0.4,1.1,0.8,1.5c0.4,0.4,0.9,0.6,1.5,0.7c0.1,0.6,0.4,1.2,0.8,1.6c0.4,0.4,1.1,0.7,1.7,0.8c0.2,0.7,0.6,1.4,1.5,1.7
	c0.1,0,0.5,0.1,0.8,0.1c0.5,0,1-0.1,1.6-0.6c0,0,0,0,0,0c0,0,0.1-0.1,0.2-0.2c1-0.9,1.7-1.7,2.1-2.3c0.6,0.2,1.5,0.2,2-0.2
	c0.6-0.5,0.9-1.1,0.9-1.8c0.6,0,1.3-0.3,1.6-0.6c0.4-0.4,0.7-1.1,0.6-1.7c0.6,0,1.2-0.2,1.8-0.8c0.6-0.6,0.6-1.4,0.5-1.9
	C30.3,18.2,31,15.9,30.7,13.7z M9.1,21l2.6-2.5c0.1-0.1,0.9-0.6,1.5,0.2c0.5,0.6,0.3,1.1,0.2,1.2l-2.8,2.7c-0.3,0-0.7-0.1-1-0.4
	C9.3,21.9,9.1,21.4,9.1,21z M11.4,23.4l2.8-2.7c0.2-0.1,0.9-0.4,1.3,0c0.4,0.4,0.4,1.1,0.3,1.3l-3,2.8c-0.3,0-0.7-0.1-1-0.4
	C11.6,24.1,11.4,23.7,11.4,23.4z M13.7,25.6l2.9-2.8c0.3,0,1-0.1,1.3,0.3c0.3,0.3,0.2,0.8,0.2,1.1l-2.8,2.9c-0.4,0-0.9-0.3-1.2-0.6
	C13.9,26.4,13.7,25.9,13.7,25.6z M18.5,28.5c-0.1,0.1-0.2,0.2-0.3,0.2C17.8,29.2,17.2,29,17,29c-0.4-0.1-0.6-0.4-0.8-1.1l2.8-3
	c0.4-0.2,0.9,0.1,1.1,0.3c0.2,0.3,0.3,0.8,0.4,1C20.5,26.5,20.1,27.1,18.5,28.5z M27.5,21.2c-0.4,0.5-1.1,0.5-1.5,0.4l-4.9-5
	c-0.2-0.2-0.6-0.2-0.8,0c-0.2,0.2-0.2,0.6,0,0.8l5,5.1c0.2,0.3,0.1,0.9-0.2,1.2c-0.3,0.3-0.9,0.4-1.3,0.2c0,0,0,0,0,0l-5.1-5.2
	c-0.2-0.2-0.6-0.2-0.8,0c-0.2,0.2-0.2,0.6,0,0.8l5.1,5.2c0.1,0.4,0.1,0.9-0.4,1.3c-0.2,0.2-0.7,0.2-1.1,0c-0.1-0.3-0.2-0.9-0.6-1.3
	c-0.3-0.4-1-0.8-1.7-0.8c0-0.4-0.1-1-0.5-1.4c-0.5-0.6-1.2-0.8-1.8-0.8c0-0.5-0.1-1.2-0.7-1.8c-0.5-0.5-1.1-0.6-1.7-0.5
	c0-0.4-0.1-0.9-0.6-1.4c-1-1.2-2.4-0.8-3.1-0.3c0,0,0,0,0,0L8.6,20c-1.1-1.1-1.8-2.5-2.2-3.8c-0.6-2.5-0.2-4.5,1.2-6.2
	c2-2.5,5.7-3.2,8.6-1.6c0.3,0.1,0.7,0.5,1.1,0.7l-4.2,4.1c-0.1,0.1-0.7,0.7-0.8,1.5c0,0.4,0.1,0.9,0.7,1.4c1.4,1.2,3.5,1.1,5-0.3
	c0.6-0.6,2-1.9,2.7-2.6l7,7.1C27.7,20.4,27.8,20.9,27.5,21.2z M28.1,19.1l-7-7.1c-0.1-0.1-0.2-0.2-0.4-0.2h0c-0.1,0-0.3,0.1-0.4,0.2
	c0,0-2.3,2.2-3,3c-1.1,1-2.5,1.1-3.5,0.3c-0.3-0.3-0.3-0.5-0.3-0.6c0-0.3,0.3-0.6,0.4-0.7c0,0,0,0,0,0l4.6-4.5
	C19.4,8.6,20.6,8,22,7.8c1.8-0.2,3.6,0.3,5,1.4c1.5,1.1,2.4,2.8,2.6,4.7C29.8,15.7,29.3,17.5,28.1,19.1z"/>
</svg>
