<?xml version="1.0" encoding="utf-8"?>
<!-- Generator: Adobe Illustrator 20.1.0, SVG Export Plug-In . SVG Version: 6.00 Build 0)  -->
<svg version="1.1" id="Layer_1" xmlns="http://www.w3.org/2000/svg" xmlns:xlink="http://www.w3.org/1999/xlink" x="0px" y="0px"
	 viewBox="0 0 468 468" style="enable-background:new 0 0 468 468;" xml:space="preserve">
<style type="text/css">
	.st0{fill:#FFFFFF;}
	.st1{fill:#F0532E;}
	.st2{fill:none;stroke:#F0552C;stroke-width:3;stroke-miterlimit:10;}
	.st3{fill:#F0532E;stroke:#F0532E;stroke-miterlimit:10;}
</style>
<g>
	<circle class="st0" cx="136.5" cy="134.9" r="82.2"/>
	<g>
		<g>
			<g>
				<path class="st1" d="M160.7,184.9c-0.5,0-0.9,0-1.3,0c-2.4-0.1-4.6-1.2-6.1-3.2l-0.1-0.2l-8.4-13.9c-0.8-1-1.7-1.8-2.7-2.5
					l-21.8-12.4c-1.2-0.8-2.3-1.7-3.2-2.6l-8.1-8.4c-1.6-1.7-3.8-2.6-6.1-2.7l-10.8-0.3c-1.1,0-2.1-0.6-2.6-1.5
					c-0.6-0.9-0.7-2-0.3-3c1.3-3.2,4.9-8.9,14.6-10.7c11.7-2.2,24.5,7.2,27.5,9.5l4.8-0.6c1.2-0.2,2.3-0.9,2.8-2.1
					c0.5-1.1,0.4-2.4-0.3-3.4l-6.9-10.3c-0.7-1.1-1.8-1.8-3-2l-17.5-3.8c-0.4-0.1-0.8-0.1-1.3-0.1l-14.5,2.8
					c-7.1,1.7-11.3-1.3-13.2-3.3c-0.8-0.8-1.1-1.9-0.9-3.1c0.2-1.1,1-2.1,2-2.6l17.7-8.2l16.1-0.7c0-0.3,0.2-0.6,0.4-0.9l4.9-6.2
					c1.6-1.9,4.2-2.5,6.4-1.5l29,10.4c2,0.7,3.6,2.2,4.4,4.1l17.5,43.9l11,15.2c1.6,2.7,1.6,5.9,0.1,8.4c-2.2,3.6-6.4,8.6-14.1,11.9
					C169.3,184.3,164.3,184.9,160.7,184.9z M156.3,179.6c0.8,1,2,1.6,3.2,1.7c3.4,0.1,8-0.2,15.6-3.5c6.8-3,10.6-7.3,12.5-10.5
					c0.8-1.4,0.8-3.1,0-4.5l-11.3-15.6l-17.6-44.1c-0.4-0.9-1.2-1.7-2.3-2.1l-29.2-10.5c-0.8-0.4-1.7-0.2-2.2,0.4l-3.6,4.5l0.2,0
					l22.3,5.6c1,0.2,1.6,1.2,1.3,2.2c-0.2,1-1.2,1.6-2.2,1.3l-21.8-5.4l-19.6,0.9l-16.9,7.8c1.7,1.6,4.6,3.2,9.6,2l15-2.9
					c0.8-0.1,1.6,0,2.4,0.2l17.5,3.8c2.2,0.5,4,1.7,5.3,3.6l6.9,10.3c1.4,2.1,1.6,4.7,0.6,7c-1,2.3-3.1,3.9-5.6,4.2l-6.4,0.8
					l-0.6-0.5c-0.1-0.1-13.7-11.4-25.1-9.2c-7.4,1.4-10.4,5.3-11.6,7.9l10.1,0.3c3.3,0.1,6.4,1.5,8.7,3.8l8.1,8.4
					c0.7,0.8,1.6,1.5,2.5,2.1l21.8,12.4c1.5,1,2.8,2.1,3.8,3.5l0.1,0.2L156.3,179.6z"/>
			</g>
			<g>
				<path class="st1" d="M135.4,122.4c-0.1,0-0.1,0-0.2,0l-9.3-1.1c-3.1-0.4-5.8-2.1-7.6-4.6l-3.3-4.9c-0.6-0.8-0.3-2,0.5-2.5
					c0.8-0.6,2-0.3,2.5,0.5l3.3,4.9c1.1,1.7,2.9,2.8,4.9,3l9.3,1.1c1,0.1,1.7,1,1.6,2C137.1,121.7,136.3,122.4,135.4,122.4z"/>
			</g>
			<g>
				<path class="st1" d="M154.5,99.8c-0.5,0-0.9-0.2-1.3-0.5L142,88.8c-0.2-0.2-0.3-0.2-0.5-0.2l-7.5,2.8c-0.9,0.4-2-0.1-2.4-1.1
					c-0.4-0.9,0.1-2,1.1-2.4l7.5-2.8c1.5-0.6,3.3-0.2,4.4,1.1l11.1,10.4c0.7,0.7,0.8,1.9,0.1,2.6C155.5,99.6,155,99.8,154.5,99.8z"
					/>
			</g>
		</g>
	</g>
</g>
<g>
	<circle class="st0" cx="331.5" cy="134.9" r="82.2"/>
	<path class="st2" d="M366.2,108.9c-0.2-0.1-0.3-0.1-0.5-0.2c-0.1,0.2-0.2,0.4-0.2,0.6c-0.2,1-0.4,2.1-0.6,3.1
		c-0.2,1-0.3,1.9-0.4,2.9c-0.1,1.2-0.1,2.3-0.2,3.5c-0.1,1.2-0.1,2.5-0.2,3.7c0,2,0,4,0,5.9c0.1,2,0.2,4,0.3,6c0,0.1,0,0.2,0.1,0.3
		c0.1,0.5,0.2,1,0.2,1.5c0.1,0.8,0.1,1.6,0.1,2.4c0.1,0.9,0.3,1.7,0.2,2.6c-0.6-0.1-1.3-0.2-1.9-0.3c-0.8-0.2-1.7-0.3-2.5-0.5
		c-1.3-0.2-2.5-0.4-3.8-0.6c-1.1-0.2-2.2-0.4-3.3-0.6c-1.2-0.2-2.4-0.5-3.7-0.7c-1.2-0.2-2.4-0.5-3.7-0.7c-1.4-0.3-2.8-0.5-4.2-0.9
		c-2-0.5-4-1-6.1-1.4c-2.6-0.6-5.1-1.7-7.5-2.8c-1-0.4-2-0.9-3-1.4c-0.6-0.3-1.2-0.5-1.8-0.9c-1-0.7-2-1.4-2.9-2.1
		c-0.7-0.6-1.5-1.2-1.7-2.2c-0.5-2.1-0.9-4.2-1.3-6.4c-0.2-1-0.2-2.1-0.5-3.1c-0.8-2.6-1.6-5.2-2.4-7.8c-0.2-0.6-0.5-1.2-0.6-1.8
		c-0.2-0.9-0.2-1.8-0.3-2.6c-0.2-1.4-0.2-2.7,0.2-4c0.1-0.3,0.1-0.7,0.1-1.1c0-0.6-0.3-0.9-0.9-0.9c-0.3,0-0.5,0-0.8,0
		c-1.5,0.2-2.4,1.2-3.1,2.4c-0.7,1.1-1.1,2.3-1.4,3.6c-0.2,1.3-0.4,2.5-0.3,3.8c0,1.5,0.3,3,0.3,4.5c0,0.6-0.1,1.3-0.3,1.9
		c-0.4,0.9-1.2,1.5-2,2.1c-1.5,1-3.3,1.4-5,1.3c-1.8-0.1-3.5-0.5-5.1-1.2c-0.5-0.2-1.1-0.5-1.6-0.8c-0.7-0.4-1.2-1-1.9-1.5
		c-1.1-0.8-2.2-1.5-3.4-2.2c-1.1-0.6-2.2-1.2-3.3-1.8c-0.3-0.2-0.7-0.2-1-0.5c-0.5-0.4-1.2-0.4-1.6-1c0,0-0.1,0-0.1-0.1
		c-1.2-0.5-2.4-1.1-3.7-1.5c-0.6-0.2-1.3-0.2-1.9-0.1c-1.3,0.2-2.3,2.4-1.1,3.4c0.8,0.6,1.4,1.3,2.2,1.8c1.1,0.8,2.3,1.4,3.4,2.2
		c1,0.7,2.1,1.4,3,2.3c1.3,1.3,2.9,2.3,4.4,3.3c0.5,0.4,0.9,0.8,1.1,1.4c0.1,0.3,0.1,0.6,0,1c-0.1,0.8-0.5,1.2-1.2,0.9
		c-1.8-0.6-3.7-1.3-5.5-1.8c-1.5-0.4-3-0.8-4.6-1.1c-1.5-0.3-3.1-0.5-4.6-1c-1.3-0.4-2.8-0.6-4.2-0.4c-1.5,0.3-2.4,1.3-2,3
		c0.1,0.5,0.4,1,0.9,1.2c0.4,0.2,0.8,0.4,1.2,0.5c2.4,0.7,4.8,1.4,7.2,2.1c1.6,0.5,3.3,1.1,4.9,1.6c0.7,0.2,1.3,0.4,2,0.6
		c1.1,0.3,2.2,0.6,3.4,1c0.4,0.1,0.4,0.5,0.4,0.8c0,0.3,0,0.5-0.3,0.7c-0.4,0.1-0.7,0.3-1.1,0.4c-0.9,0.1-1.9,0.1-2.8,0.2
		c-1.6,0.2-3.2,0.4-4.8,0.7c-1.8,0.3-3.6,0.5-5.4,0.4c-0.1,0-0.2,0-0.3,0c-2.3,0-3.4,0.5-3.4,0.5l0,0c-1,0.3-1.6,0.9-1.8,2
		c-0.1,0.7,0.5,2,1.3,2.2c1.4,0.4,2.9,0.4,4.3,0.3c0.8,0,1.5-0.1,2.3-0.1c0.8,0,1.5,0.1,2.3,0.1c1.4,0,2.8,0,4.2,0
		c1,0,2-0.1,2.9-0.1c1.1-0.1,2.3-0.2,3.4-0.3c0.1,0,0.4,0.1,0.4,0.2c0,0.3,0.1,0.7,0,0.9c-0.3,0.6-0.8,1.1-1.5,1.4
		c-1.9,0.8-3.8,1.7-5.6,2.5c-0.6,0.3-1.2,0.6-1.8,0.8c-0.7,0.2-1.5,0.2-2.2,0.4c-1.2,0.3-2.4,0.7-3.4,1.5c-0.6,0.5-0.8,1.1-0.6,1.8
		c0.2,0.8,0.8,1.3,1.5,1.5c0.7,0.2,1.6,0.1,2.4,0c1.2-0.2,2.5-0.5,3.7-0.9c2.7-0.8,5.4-1.7,8.2-2.5c0.8-0.2,1.6-0.6,2.4-0.7
		c0.7-0.1,1.4,0.1,2.1,0.2c0.9,0.1,1.7,0.3,2.6,0.4c1,0.2,2,0.3,3.1,0.5c1.2,0.1,2.5,0.3,3.7,0.3c1.5,0,3,0,4.5-0.1
		c0.6,0,1.2-0.3,1.8-0.2c1,0.1,2,0.2,3,0.4c1.8,0.4,3.6,1.1,5.2,2c1.3,0.7,2.6,1.5,3.9,2.2c1.2,0.6,2.4,1.2,3.6,1.8
		c0.7,0.3,1.4,0.7,2.1,1c1.8,0.9,3.5,1.8,5.3,2.7c1.1,0.5,2.2,1.1,3.4,1.6c1.2,0.6,2.5,1.1,3.7,1.7c1.4,0.6,2.8,1.2,4.2,1.8
		c1.7,0.7,3.3,1.4,5,2.1c2.1,0.9,4.2,1.7,6.3,2.5c1.8,0.7,3.7,1.4,5.6,2.1c2.1,0.8,4.2,1.5,6.4,2.3c2.6,0.9,5.3,1.8,8.1,2.1
		c0.6,0.1,1.4,0,1.9-0.2c1.4-0.6,2.6-1.7,3.7-2.8c1.4-1.5,2.5-3.1,3.4-4.8c0.8-1.5,1.6-3.1,2.1-4.7c1.1-3.2,2.1-6.4,3-9.6
		c0.5-1.8,1-3.7,1.5-5.6c0.4-1.4,0.8-2.9,1.1-4.3c0.4-1.6,0.7-3.3,1-4.9c0.4-2,0.7-4,1-6c0.2-1.4,0.3-2.8,0.4-4.3
		c0.1-1.8,0.1-3.7-0.2-5.5c-0.1-0.4-0.2-0.6-0.6-0.7C384.8,114.9,375.5,111.9,366.2,108.9z"/>
</g>
<g>
	<circle class="st0" cx="136.5" cy="332.9" r="82.2"/>
	<g>
		<g>
			<path class="st3" d="M110,278.4c-8.2,0-14.7,6.7-14.7,14.7V369c0,8.2,6.6,14.7,14.7,14.7h53.6c8.1,0,14.7-6.6,14.7-14.7v-64.5
				v-0.1l0,0c0-0.1,0-0.1,0-0.1c-0.1-0.1-0.1-0.1-0.1-0.1l0,0c0-0.1,0-0.2,0-0.3c0,0,0,0-0.1,0l0,0c0-0.1,0-0.1,0-0.1s0-0.1-0.1-0.1
				l0,0v-0.1c-0.1,0-0.1,0-0.1,0l0,0l-22.6-24.9c-0.2-0.2-0.5-0.4-0.8-0.4c0,0,0,0-0.1,0H110L110,278.4z M110,280.8h43.4v10.1
				c0,8.2,6.6,14.7,14.7,14.7h7.9V369c0,6.9-5.5,12.4-12.4,12.4H110c-6.8,0-12.4-5.4-12.4-12.4v-75.8
				C97.7,286.3,103.2,280.8,110,280.8L110,280.8z M155.8,282.6l8.2,9l10.6,11.7h-6.4c-6.8,0-12.4-5.5-12.4-12.4L155.8,282.6
				L155.8,282.6z M103.9,290.3c-1.6-0.1-1.6,2.4,0,2.3h3.4v73.3H104c-1.6,0-1.6,2.4,0,2.4h3.3v4.7c0,1.6,2.4,1.6,2.4,0v-4.7h58.8
				v3.3c0,1.6,2.4,1.6,2.4,0v-9c0-0.7-0.5-1.2-1.2-1.2c-0.6,0-1.1,0.5-1.1,1.2v3.3h-58.8v-73.3h3.3c1.6,0.1,1.6-2.4,0-2.3
				L103.9,290.3L103.9,290.3z M136.8,303.4c0,0-0.1,0-0.2,0c-8.5,0.1-15.4,7.1-15.4,15.7c0,3,0.8,5.7,2.2,8.1c0,0,0,0.1,0.1,0.1
				c2.6,3.5,4,5.4,4.7,6.8c0.7,1.3,0.9,2.4,0.9,4.8v0.1c0,0.1,0,0.1,0,0.2v4.3c0,1.3,0.9,2.4,1.9,3c-0.2,0.4-0.4,0.7-0.4,1.1
				c0,1.8,1.3,3.4,3.2,3.6c0.2,1.6,1.4,2.9,3,2.9c1.7,0,3-1.4,3.2-3c1.8-0.3,3.1-1.7,3.1-3.5c0-0.4-0.3-0.8-0.4-1.1
				c1.1-0.6,1.9-1.7,1.9-3v-4.3c0-0.1,0-0.1,0-0.2v-0.1c0-2.5,0.1-3.5,0.8-4.8c0.7-1.4,2.2-3.2,4.8-6.8c0,0,0-0.1,0.1-0.1
				c1.3-2.4,2.2-5.1,2.2-8.1c0-8.6-6.9-15.6-15.4-15.7C137,303.4,136.9,303.4,136.8,303.4L136.8,303.4L136.8,303.4z M136.8,305.8
				c7.3,0,13.3,6,13.3,13.3c0,2.5-0.7,4.8-1.8,6.8c-2.5,3.4-4,5.3-5,7c-0.7,1.5-1,3-1,5h-10.8c-0.1-2-0.3-3.5-1.1-5
				c-0.9-1.8-2.4-3.6-4.9-7c-1.2-2-1.8-4.3-1.8-6.8C123.6,311.7,129.5,305.8,136.8,305.8L136.8,305.8z M131.5,340.4h10.7v3.1
				c0,0.7-0.4,1.2-1.1,1.2c-0.1,0.1-0.2,0.1-0.2,0.1h-5.7c-1.6,0-1.6,2.4,0,2.4h5.4c0.1,0.1,0.2,0.3,0.2,0.4c0,0.8-0.5,1.3-1.2,1.3
				h-0.6c-0.6,0-1.1,0.5-1.1,1.2v0.6c0,0.5-0.4,1-1,1c-0.4,0-0.9-0.4-0.9-1v-0.6c0-0.7-0.5-1.2-1.1-1.2h-0.6c-0.7,0-1.2-0.5-1.2-1.3
				c0-0.4,0.2-0.6,0.3-0.9c0.7-0.7,0.3-1.8-0.7-2c-0.6,0-1.1-0.5-1.1-1.2L131.5,340.4L131.5,340.4z"/>
		</g>
	</g>
</g>
<g>
	<circle class="st0" cx="331.5" cy="332.9" r="82.2"/>
	<g>
		<g>
			<g>
				<path class="st3" d="M333.3,377.2c-0.5,0-0.9,0-1.4,0l0.1-2.6c0.8,0,1.7,0,2.5,0l0.1,2.6C334.2,377.2,333.7,377.2,333.3,377.2z
					 M337.3,377l-0.2-2.6c0.8-0.1,1.7-0.2,2.5-0.3l0.4,2.6C339.1,376.9,338.2,377,337.3,377z M329.2,377c-0.9-0.1-1.8-0.2-2.7-0.3
					l0.4-2.6c0.8,0.1,1.7,0.2,2.5,0.3L329.2,377z M342.6,376.3l-0.5-2.6c0.8-0.2,1.7-0.4,2.5-0.6l0.7,2.5
					C344.4,375.9,343.5,376.1,342.6,376.3z M323.9,376.2c-0.9-0.2-1.8-0.4-2.6-0.6l0.7-2.5c0.8,0.2,1.6,0.4,2.5,0.6L323.9,376.2z
					 M347.8,374.8l-0.8-2.5c0.8-0.3,1.6-0.6,2.4-0.9l1,2.4C349.5,374.2,348.7,374.6,347.8,374.8z M318.7,374.8
					c-0.9-0.3-1.7-0.6-2.5-0.9l1-2.4c0.8,0.3,1.6,0.6,2.4,0.9L318.7,374.8z M352.8,372.8l-1.1-2.4c0.8-0.4,1.5-0.8,2.3-1.2l1.3,2.3
					C354.4,372,353.6,372.4,352.8,372.8z M313.7,372.8c-0.8-0.4-1.6-0.8-2.4-1.2l1.3-2.3c0.7,0.4,1.5,0.8,2.3,1.2L313.7,372.8z
					 M357.5,370.2l-1.4-2.2c0.7-0.5,1.4-0.9,2.1-1.4l1.5,2.1C359.1,369.2,358.3,369.7,357.5,370.2z M309,370.2
					c-0.8-0.5-1.5-1-2.2-1.5l1.5-2.1c0.7,0.5,1.4,1,2.1,1.4L309,370.2z M361.9,367.1l-1.6-2c0.7-0.5,1.3-1.1,1.9-1.7l1.8,1.9
					C363.3,365.9,362.6,366.5,361.9,367.1z M304.7,367c-0.7-0.6-1.4-1.2-2-1.8l1.8-1.9c0.6,0.6,1.3,1.1,1.9,1.7L304.7,367z
					 M296.5,309.8l-2.3-1.3c0.5-0.8,0.9-1.5,1.4-2.3l2.2,1.5C297.4,308.4,296.9,309.1,296.5,309.8z M367.4,305.8
					c-0.5-0.7-1-1.3-1.6-2l2-1.7c0.6,0.7,1.1,1.4,1.7,2.1L367.4,305.8z M299.3,305.6l-2.1-1.6c0.5-0.7,1.1-1.4,1.7-2.1l2,1.7
					C300.4,304.3,299.9,305,299.3,305.6z M364.1,302c-0.6-0.6-1.2-1.2-1.8-1.8l1.8-1.9c0.7,0.6,1.3,1.2,1.9,1.9L364.1,302z
					 M302.7,301.8l-1.9-1.8c0.6-0.6,1.3-1.3,1.9-1.9l1.8,1.9C303.9,300.6,303.3,301.2,302.7,301.8z M360.4,298.5
					c-0.7-0.5-1.3-1-2-1.5l1.5-2.1c0.7,0.5,1.4,1.1,2.1,1.6L360.4,298.5z M306.4,298.4l-1.6-2c0.7-0.6,1.4-1.1,2.1-1.6l1.5,2.1
					C307.8,297.3,307.1,297.9,306.4,298.4z M356.3,295.6c-0.7-0.5-1.4-0.9-2.2-1.3l1.3-2.3c0.8,0.4,1.6,0.9,2.3,1.4L356.3,295.6z
					 M310.6,295.4l-1.4-2.2c0.8-0.5,1.5-0.9,2.3-1.4l1.3,2.3C312,294.6,311.3,295,310.6,295.4z M351.8,293.1c-0.8-0.4-1.5-0.7-2.3-1
					l1-2.4c0.8,0.3,1.6,0.7,2.5,1.1L351.8,293.1z M315,293l-1.1-2.4c0.8-0.4,1.6-0.7,2.5-1.1l1,2.4C316.5,292.3,315.8,292.6,315,293
					z M347.2,291.2c-0.8-0.3-1.6-0.5-2.4-0.7l0.7-2.5c0.9,0.2,1.7,0.5,2.6,0.8L347.2,291.2z M319.7,291.1l-0.8-2.5
					c0.8-0.3,1.7-0.5,2.6-0.8l0.7,2.5C321.3,290.6,320.5,290.8,319.7,291.1z M342.3,289.8c-0.8-0.2-1.7-0.3-2.5-0.5l0.4-2.6
					c0.9,0.1,1.8,0.3,2.7,0.5L342.3,289.8z M324.6,289.8l-0.5-2.6c0.9-0.2,1.8-0.3,2.7-0.5l0.4,2.6
					C326.3,289.5,325.4,289.6,324.6,289.8z M337.2,289.1c-0.8-0.1-1.7-0.1-2.5-0.2l0.1-2.6c0.9,0,1.8,0.1,2.7,0.2L337.2,289.1z
					 M329.6,289.1l-0.2-2.6c0.9-0.1,1.8-0.1,2.7-0.1l0.1,2.6C331.3,288.9,330.5,289,329.6,289.1z"/>
			</g>
			<g>
				<path class="st3" d="M287.1,344.9c-6.1,0-11.2-6.7-11.6-12.6c-1.4-0.4-2.6-1.5-2.6-3v-4.1c0-1.3,1.3-2.2,2.1-2.7v-3.5
					c0-3.9,3.1-7.1,7-7.3c0.8-0.3,4.1-1.6,7.5-1.6c5.3,0,8.3,3.1,8.3,8.8v3.2c2.1,0.4,2.1,2.1,2.1,3v4.1c0,1.4-0.7,2.5-1.7,2.9
					C297.7,338.4,293.1,344.9,287.1,344.9z M289.4,312.2c-3.4,0-6.8,1.5-6.8,1.5c-0.1,0.1-0.3,0.1-0.4,0.1c-2.9,0-5.2,2.3-5.2,5.2
					v4.1c0,0.4-0.2,0.8-0.6,0.9c-0.7,0.3-1.4,0.9-1.5,1.1l0,4.1c0,0.5,0.9,1,1.6,1c0.6,0,1,0.5,1,1c0,5.1,4.4,11.4,9.6,11.4
					c5,0,8.9-6.1,8.9-11.4c0-0.6,0.5-1,1-1c0.4,0,0.6-0.3,0.6-1v-4.1c0-1,0-1-1-1c-0.6,0-1-0.5-1-1v-4.1
					C295.7,314.4,293.6,312.2,289.4,312.2z"/>
				<path class="st3" d="M265.6,359.4c-0.6,0-1-0.5-1-1v-2.1c0-6,4.8-10.4,11.4-10.4h2.6l2.8-4.1c0.3-0.5,1-0.6,1.4-0.3
					c0.5,0.3,0.6,1,0.3,1.4l-3.1,4.6c-0.2,0.3-0.5,0.5-0.9,0.5H276c-5.5,0-9.3,3.4-9.3,8.3v2.1C266.6,358.9,266.2,359.4,265.6,359.4
					z"/>
				<path class="st3" d="M309.1,359.4c-0.6,0-1-0.5-1-1v-2.1c0-4.9-3.8-8.3-9.2-8.3h-3.1c-0.3,0-0.7-0.2-0.9-0.4l-3.4-4.9
					c-0.3-0.5-0.2-1.1,0.3-1.4c0.5-0.3,1.1-0.2,1.4,0.3l3.1,4.4h2.6c6.6,0,11.2,4.3,11.2,10.4v2.1
					C310.2,358.9,309.7,359.4,309.1,359.4z"/>
				<path class="st3" d="M287.4,353.2c-0.2,0-0.4-0.1-0.5-0.2l-8.3-5.2c-0.5-0.3-0.6-0.9-0.3-1.4c0.3-0.5,0.9-0.6,1.4-0.3l7.7,4.8
					l7.9-4.8c0.5-0.3,1.1-0.1,1.4,0.3c0.3,0.5,0.1,1.1-0.3,1.4l-8.5,5.2C287.7,353.1,287.5,353.2,287.4,353.2z"/>
			</g>
			<g>
				<path class="st3" d="M397.3,359.4c-0.6,0-1.1-0.5-1.1-1.1v-2.1c0-5.3-7.9-7.3-12.9-7.3c-0.3,0-0.6-0.2-0.8-0.4l-4.8-6.3
					c-0.4-0.5-0.3-1.1,0.2-1.5c0.5-0.4,1.1-0.3,1.5,0.2l4.5,5.8c6,0.1,14.5,2.7,14.5,9.5v2.1C398.4,358.9,397.9,359.4,397.3,359.4z"
					/>
				<path class="st3" d="M352.3,359.4c-0.6,0-1.1-0.5-1.1-1.1v-2.1c0-6.8,8.5-9.3,14.5-9.5l4.8-5.9c0.4-0.5,1-0.5,1.5-0.2
					c0.5,0.4,0.5,1,0.2,1.5l-5.1,6.3c-0.2,0.2-0.5,0.4-0.8,0.4c-5,0-12.9,2-12.9,7.3v2.1C353.4,358.9,352.9,359.4,352.3,359.4z"/>
				<path class="st3" d="M374.8,342.2c-12.5,0-17-7-18.1-9.2c-0.2-0.3-0.1-0.7,0-1c1-1.7,3.7-6.5,4.2-8.3
					c2.1-8.7,7.1-13.7,13.9-13.7s11.8,5,13.9,13.7c0.4,1.8,3.1,6.6,4.2,8.3c0.2,0.3,0.2,0.7,0,1
					C391.8,335.2,387.3,342.2,374.8,342.2z M358.9,332.6c1.3,2.3,5.5,7.5,15.9,7.5s14.6-5.2,15.9-7.5c-1-1.6-3.6-6.3-4.1-8.3
					c-0.9-3.6-3.7-12-11.8-12c-8.1,0-11,8.4-11.8,12C362.5,326.4,359.8,331,358.9,332.6z"/>
				<path class="st3" d="M370.5,359.4c-0.1,0-0.1,0-0.2,0c-0.3-0.1-0.6-0.3-0.8-0.6l-4.3-9.6c-0.2-0.4-0.1-0.9,0.3-1.2
					c0.4-0.3,0.9-0.3,1.3-0.1l8.6,5.4c0.3,0.2,0.5,0.5,0.5,0.8c0,0.3-0.1,0.6-0.3,0.9l-4.3,4.3C371.1,359.3,370.8,359.4,370.5,359.4
					z M368.6,351.4l2.2,5l2.2-2.2L368.6,351.4z"/>
				<path class="st3" d="M379.1,359.4c-0.3,0-0.6-0.1-0.8-0.3l-4.3-4.3c-0.2-0.2-0.3-0.6-0.3-0.9c0-0.3,0.2-0.6,0.5-0.8l8.6-5.4
					c0.4-0.3,0.9-0.2,1.3,0.1c0.4,0.3,0.5,0.8,0.3,1.2l-4.3,9.6c-0.1,0.3-0.4,0.6-0.8,0.6C379.2,359.4,379.1,359.4,379.1,359.4z
					 M376.5,354.2l2.2,2.2l2.2-5L376.5,354.2z"/>
			</g>
		</g>
	</g>
</g>
</svg>
