<?xml version="1.0" encoding="utf-8"?>
<!-- Generator: Adobe Illustrator 20.1.0, SVG Export Plug-In . SVG Version: 6.00 Build 0)  -->
<svg version="1.1" id="Layer_1" xmlns="http://www.w3.org/2000/svg" xmlns:xlink="http://www.w3.org/1999/xlink" x="0px" y="0px"
	 viewBox="0 0 36 36" style="enable-background:new 0 0 36 36;" xml:space="preserve">
<style type="text/css">
	.st0{fill:#f8cf1c;}
</style>
<g>
	<g>
		<path class="st0" d="M25,26.6c-0.8,0-1.6-0.2-2.4-0.6c-0.7-0.4-1.4-0.9-1.9-1.5c-0.5-0.6-1-1.4-1.3-2.2c-0.3-0.8-0.5-1.7-0.5-2.7
			c0-1.4,0.3-2.7,0.9-3.9c0.6-1.2,1.3-2.3,2.3-3.2c1-0.9,2.1-1.6,3.4-2.1c1.3-0.5,2.6-0.8,4-0.9l0.5,0v3.5L29.7,13
			c-0.8,0.2-1.5,0.5-2.2,0.9c-0.7,0.4-1.3,0.8-1.8,1.3c-0.5,0.5-0.9,1-1.2,1.5c-0.3,0.5-0.4,1-0.4,1.5c0,0.1,0,0.1,0,0.2
			c0.1-0.1,0.3-0.2,0.4-0.2c0.2-0.1,0.4-0.2,0.7-0.3c0.7-0.3,1.7-0.2,2.5,0.2c0.5,0.2,0.9,0.5,1.2,0.9c0.4,0.4,0.6,0.9,0.8,1.4
			c0.2,0.5,0.3,1.1,0.3,1.7c0,0.6-0.1,1.2-0.4,1.8c-0.3,0.5-0.6,1-1.1,1.4c-0.5,0.4-1,0.7-1.6,1C26.4,26.5,25.7,26.6,25,26.6z
			 M29.1,10.5c-1.1,0.1-2.2,0.4-3.2,0.8c-1.2,0.5-2.2,1.1-3.1,2c-0.9,0.8-1.6,1.8-2.1,2.8c-0.5,1.1-0.8,2.3-0.8,3.5
			c0,0.8,0.1,1.6,0.4,2.4c0.3,0.7,0.6,1.4,1.1,1.9c0.5,0.5,1,1,1.6,1.3c1.1,0.6,2.5,0.6,3.5,0.2c0.5-0.2,0.9-0.4,1.3-0.8
			c0.4-0.3,0.6-0.7,0.9-1.1c0.2-0.4,0.3-0.9,0.3-1.4c0-0.5-0.1-1-0.2-1.4c-0.2-0.4-0.4-0.8-0.7-1.1c-0.3-0.3-0.6-0.5-0.9-0.7
			c-0.6-0.3-1.3-0.3-1.7-0.1c-0.2,0.1-0.4,0.2-0.6,0.3c-0.2,0.1-0.4,0.2-0.6,0.3c-0.2,0.1-0.5,0.2-0.7,0.2c-0.2,0-0.5-0.1-0.6-0.7
			c0-0.2,0-0.4,0-0.6c0-0.7,0.2-1.4,0.5-2c0.3-0.6,0.8-1.2,1.4-1.8c0.6-0.5,1.3-1,2-1.4c0.7-0.4,1.4-0.6,2.1-0.9V10.5z M12.8,26.6
			c-0.8,0-1.6-0.2-2.4-0.6c-0.7-0.4-1.4-0.9-1.9-1.5c-0.5-0.6-1-1.4-1.3-2.2c-0.3-0.8-0.5-1.7-0.5-2.7c0-1.4,0.3-2.7,0.9-3.9
			c0.6-1.2,1.3-2.3,2.3-3.2c1-0.9,2.1-1.6,3.4-2.1c1.3-0.5,2.6-0.8,4-0.9l0.5,0v3.5L17.5,13c-0.8,0.2-1.6,0.5-2.3,0.9
			c-0.7,0.4-1.3,0.8-1.8,1.3c-0.5,0.5-0.9,1-1.2,1.5c-0.3,0.5-0.4,1-0.4,1.5c0,0.1,0,0.1,0,0.2l0.4-0.2c0.2-0.1,0.5-0.2,0.7-0.3
			c0.7-0.3,1.7-0.2,2.5,0.2c0.5,0.2,0.9,0.5,1.3,0.9c0.4,0.4,0.6,0.9,0.9,1.4c0.2,0.5,0.3,1.1,0.3,1.7c0,0.6-0.1,1.2-0.4,1.8
			c-0.3,0.5-0.6,1-1.1,1.4c-0.5,0.4-1,0.7-1.6,1C14.2,26.5,13.5,26.6,12.8,26.6z M16.9,10.5c-1.1,0.1-2.2,0.4-3.2,0.8
			c-1.2,0.5-2.2,1.1-3.1,2C9.7,14.1,9,15,8.5,16.1c-0.5,1.1-0.8,2.3-0.8,3.5c0,0.8,0.1,1.6,0.4,2.4c0.3,0.7,0.6,1.4,1.1,1.9
			c0.5,0.5,1,1,1.6,1.3c1.1,0.6,2.5,0.6,3.5,0.2c0.5-0.2,0.9-0.4,1.3-0.8c0.4-0.3,0.6-0.7,0.9-1.1c0.2-0.4,0.3-0.9,0.3-1.4
			c0-0.5-0.1-1-0.2-1.4c-0.2-0.4-0.4-0.8-0.7-1.1c-0.3-0.3-0.6-0.5-0.9-0.7c-0.6-0.3-1.2-0.3-1.7-0.1c-0.2,0.1-0.4,0.2-0.6,0.3
			l-0.5,0.3c-0.2,0.1-0.5,0.2-0.7,0.2c-0.3,0-0.5-0.2-0.6-0.7c0-0.2,0-0.4,0-0.7c0-0.7,0.2-1.4,0.5-2c0.3-0.6,0.8-1.2,1.4-1.8
			c0.6-0.5,1.3-1,2-1.4c0.7-0.4,1.4-0.7,2.1-0.9V10.5z"/>
	</g>
</g>
</svg>
