<?xml version="1.0" encoding="utf-8"?>
<!-- Generator: Adobe Illustrator 20.1.0, SVG Export Plug-In . SVG Version: 6.00 Build 0)  -->
<svg version="1.1" id="Layer_1" xmlns="http://www.w3.org/2000/svg" xmlns:xlink="http://www.w3.org/1999/xlink" x="0px" y="0px"
	 viewBox="0 0 2000 1000" style="enable-background:new 0 0 2000 1000;" xml:space="preserve">
<style type="text/css">
	.st0{fill:#FFFFFF;}
	.st1{fill:#F8CF1C;}
	.st2{fill:#EF532E;}
	.st3{fill:#1E3E5B;}
	.st4{fill:#E6D5C9;}
</style>
<g>
	<path class="st0" d="M450.9,513.4c0,0.2,0,0.4,0,0.6v50.5c0,6.2-5.1,11.3-11.3,11.3c-6,0-11.5-5.1-11.5-11.3V514c0-0.2,0-0.4,0-0.6
		c-0.2-11.7-10-21.3-21.9-21.3c-11.7,0-21.5,9.8-21.5,21.9v50.5c0,0.4-0.2,1.1-0.2,1.5c0,0.2,0,0.6,0,0.6c-0.2,0.4-0.2,0.9-0.6,1.3
		c0,0.2,0,0.6,0,1.1c-1.9,3.8-6.2,6.8-10.7,6.8c-0.9,0-1.5-0.2-2.1-0.2c-5.1-1.3-9.2-5.5-9.2-11.1V514c0-0.2,0-0.2,0-0.2v-33
		c0-6.6,5.1-11.5,11.3-11.5c4.5,0,8.5,2.3,10.2,6.4c6.8-4,14.7-6.4,22.8-6.4c13.4,0,25.4,5.5,33.4,14.7c7.9-9.2,20-14.7,33.4-14.7
		c24.5,0,44.3,20,44.3,44.7v50.5c0,6.2-5.1,11.3-11.3,11.3c-6.2,0-11.5-5.1-11.5-11.3V514c0-12.1-9.8-21.9-21.5-21.9
		C460.9,492.1,451.3,501.6,450.9,513.4z"/>
	<path class="st0" d="M574.1,442.6c0,6.4-4.9,11.7-11.5,11.7c-6.4,0-11.5-5.3-11.5-11.7v-4.5c0-6.4,5.1-11.5,11.5-11.5
		c6.6,0,11.5,5.1,11.5,11.5V442.6z M574.1,481.2v83.1c0,6.4-4.9,11.5-11.5,11.5c-6.4,0-11.5-5.1-11.5-11.5v-83.1
		c0-6.8,5.1-11.7,11.5-11.7C569.2,469.5,574.1,474.4,574.1,481.2z"/>
	<path class="st0" d="M698.5,513.6v50.9c0,6.2-4.9,11.3-11.1,11.3c-6,0-11.3-5.1-11.3-11.3v-50.9c0-11.9-10-21.5-22.2-21.5
		c-11.9,0-21.3,9.6-21.3,21.5v50.9c0,0.6,0,1.3-0.4,2.1c-1.1,5.1-5.8,9.2-11.3,9.2c-6.4,0-11.3-5.1-11.3-11.3v-50.9v-33
		c0-6.2,4.9-11.3,11.3-11.3c4.5,0,8.5,2.6,10.4,6.6c6.4-4,14.3-6.6,22.6-6.6C678.7,469.3,698.5,489.5,698.5,513.6z"/>
	<path class="st0" d="M832.4,564.3c0,6.2-5.1,11.5-11.5,11.5c-5.8,0-10.2-4-11.3-9.2c-8.1,5.5-18.3,9.2-29,9.2
		c-28.8,0-51.8-24.3-51.8-53c0-29.2,23-53.5,51.8-53.5c10.4,0,20.7,3.4,28.5,8.9v-40c0-6.2,5.1-11.5,11.7-11.5
		c6.4,0,11.5,5.3,11.5,11.5v84.4c0,0,0,0,0,0.2V564.3z M780.6,492.5c-7.7,0-14.7,3.2-20,8.7c-5.3,5.3-8.5,13-8.5,21.5
		c0,8.1,3.2,15.8,8.5,21.1c5.3,5.5,12.4,8.7,20,8.7c7.9,0,14.7-3.2,20-8.7c5.3-5.3,8.5-13,8.5-21.1c0-8.5-3.2-16.2-8.5-21.5
		C795.3,495.7,788.5,492.5,780.6,492.5z"/>
	<path class="st0" d="M867.2,545.3c3.8-5.1,11.3-5.8,16-1.7c5.5,4.7,15.1,9.6,23.4,9.4c5.8,0,11.1-1.9,14.5-4c3-2.6,3.8-4.7,3.8-6.4
		c0-1.1-0.2-1.5-0.6-2.1c-0.2-0.6-1.1-1.5-2.8-2.6c-3-2.1-9.4-4.5-17-6h-0.2c-6.6-1.3-13-3-18.5-5.5c-5.8-2.8-10.9-6.6-14.7-12.4
		c-2.3-3.8-3.6-8.5-3.6-13.4c0-9.8,5.5-18.1,12.6-23.4c7.5-5.1,16.4-7.9,26.2-7.9c14.7,0,25.1,7,32,11.7c5.1,3.4,6.6,10.4,3.4,15.8
		c-3.4,5.1-10.4,6.6-15.8,3c-6.8-4.5-12.8-7.9-19.6-7.9c-5.3,0-10,1.7-12.8,3.8c-2.8,1.9-3.4,3.8-3.4,4.9c0,0.9,0,1.1,0.4,1.7
		c0.2,0.4,0.9,1.3,2.3,2.1c2.8,1.9,8.3,3.8,15.6,5.1l0.2,0.2h0.2c7,1.3,13.6,3.2,19.8,6.2c5.8,2.6,11.5,6.6,15.1,12.6
		c2.6,4.3,4,9.2,4,14.1c0,10.4-5.8,19.2-13.4,24.7c-7.7,5.3-17.3,8.5-27.7,8.5c-16.6-0.2-29.4-7.9-37.9-14.7
		C864,557.2,863.3,550,867.2,545.3z"/>
	<path class="st0" d="M969,522.5c0.2-29,22.8-53.3,52-53.3c27.7,0,49.6,20.7,51.3,49.4c0,0.2,0,0.6,0,1.1c0,0.4,0,1.5-0.2,1.9
		c-0.6,5.1-5.1,8.5-11.1,8.5h-67.7c1.1,4.9,3.4,10.4,7.2,14.1c4.5,5.1,13,8.9,20.5,9.6c7.7,0.6,16.8-1.3,22.2-5.3
		c4.5-4.7,13.2-4,16-0.6c2.8,3,4.9,9.4,0,13.8c-10.4,9.6-23,14.1-38.1,14.1C991.8,575.6,969.2,551.5,969,522.5z M992.2,512.1h60.3
		c-2.1-8.5-13-21.1-31.5-22.6C1002.9,490.4,994,503.3,992.2,512.1z"/>
	<path class="st0" d="M1147.7,481c0,6.4-5.5,11.7-11.9,11.7h-5.3v59.4c6.6,0,11.7,5.3,11.7,11.9c0,6.6-5.1,11.7-11.7,11.7
		c-13,0-23.6-10.7-23.6-23.6v-59.4h-6.2c-6.6,0-11.7-5.3-11.7-11.7c0-6.6,5.1-11.7,11.7-11.7h6.2v-30.9c0-6.6,5.3-11.7,11.9-11.7
		c6.6,0,11.7,5.1,11.7,11.7v30.9h5.3C1142.2,469.3,1147.7,474.4,1147.7,481z"/>
	<path class="st0" d="M1290.7,567.5c0,27.1-21.9,49-49.2,49c-7.7,0-14.9-1.9-21.7-4.9c-2.1-1.5-3.4-4.5-2.1-6.8
		c1.3-2.8,4.3-3.8,6.8-2.3c5.3,2.6,10.7,3.8,17,3.8c21.7,0,39-17.3,39-38.8v-12.8c-8.7,12.6-23,20.5-39,20.5c-27.3,0-49-23.2-49-52
		c0-28.1,21.7-51.8,49-51.8c16,0,30.2,8.1,39,20.5v-15.3c0-2.8,2.3-5.1,5.3-5.1c2.6,0,4.9,2.3,4.9,5.1V567.5z M1280.4,523.2
		c0-23.2-17.5-41.5-39-41.5c-21.3,0-38.8,18.3-38.8,41.5c0,23.4,17.5,42,38.8,42C1263,565.1,1280.4,546.6,1280.4,523.2z"/>
	<path class="st0" d="M1423.9,476.5v94.2c0,2.8-2.3,5.1-5.1,5.1s-5.1-2.3-5.1-5.1v-15.6c-8.9,12.4-23.2,20.7-39.2,20.7
		c-27.5,0-49.4-23.6-49.4-52.2c0-28.5,21.9-52.2,49.4-52.2c16,0,30.3,8.1,39.2,20.5v-15.3c0-3,2.3-5.1,5.1-5.1
		S1423.9,473.5,1423.9,476.5z M1413.7,523.6c0-23.4-17.7-42.2-39.2-42.2c-21.3,0-39.2,18.7-39.2,42.2c0,23.4,17.9,42,39.2,42
		C1396,565.6,1413.7,547,1413.7,523.6z"/>
	<path class="st0" d="M1613.9,514c-0.4-17.7-14.5-32.4-32.4-32.4c-17.7,0-32.2,14.7-32.2,32.4v56.9v0.6c0,0.2-0.2,0.4-0.2,0.4v0.4
		c-0.4,1.3-1.5,2.1-2.6,2.8c-0.9,0.4-1.7,0.6-2.6,0.6h-0.6h-0.4c-0.2,0-0.4-0.2-0.4-0.2c-0.4,0-0.9-0.4-1.3-0.6
		c-0.2,0-0.4-0.2-0.6-0.4l-0.6-0.6c-0.2-0.2-0.2-0.4-0.4-0.4c0-0.2,0-0.2-0.2-0.4c0,0,0-0.2-0.2-0.4c0-0.2,0-0.4-0.2-0.6v-0.6v-0.4
		V514c0-17.7-14.3-32.4-32.2-32.4s-32.2,14.7-32.2,32.4v56.9c0,1.7-0.9,3.2-2.3,4c-0.2,0.2-0.9,0.6-1.3,0.6
		c-0.2,0.2-0.4,0.2-0.9,0.2h-0.6h-0.6c-1.9-0.2-3.6-1.9-4.3-3.8v-1.1V514v-1.7v-35.8c0-2.8,2.3-4.9,4.9-4.9c3,0,5.1,2.1,5.1,4.9v10
		c7.7-9.2,19.2-14.9,32.2-14.9c16.2,0,30,8.9,37.3,22.2c7.5-13.2,21.5-22.2,37.5-22.2c23.4,0,42.4,19,42.4,42.4v56.9
		c0,2.6-2.1,4.9-5.1,4.9c-2.8,0-4.9-2.3-4.9-4.9V514z"/>
	<path class="st0" d="M1656.2,523.8c0-29,22.6-52.4,50.7-52.4c26.8,0,48.1,21.3,50.3,48.6v0.2v0.6c0,2.8-2.3,4.7-5.1,4.7h-85.6
		c1.1,22.8,19,40.1,40.5,40.1c13.8,0,26.6-7.2,33.7-19c1.5-2.6,4.7-3,6.8-1.7c2.3,1.7,3.2,4.7,1.7,7.2
		c-8.9,14.3-24.5,23.6-42.2,23.6C1678.8,575.8,1656.2,552.3,1656.2,523.8z M1667.1,515.5h79c-3.4-19.6-20-33.9-39.2-33.9
		C1687.3,481.6,1670.9,495.7,1667.1,515.5z"/>
	<path class="st0" d="M1781.3,554c1.7-2.1,4.9-2.6,7.2-0.6c7.2,5.3,18.7,12.1,32,12.1c8.1,0,15.1-2.6,19.8-6.4
		c5.1-3.4,7.9-8.1,7.9-12.8c-0.2-4.9-2.1-8.3-7.5-12.8c-4.5-3.4-11.9-6-22.2-7.7l-0.4-0.2c-9.4-1.7-17.7-3.8-23.6-8.1
		c-6.6-3.8-11.3-10.7-11.3-18.7c0-8.3,4.7-15.6,11.3-20.5c6.2-4.3,14.9-7,25.6-7c13.4,0,23,6.2,31.1,11.3c2.3,1.7,3,4.9,1.5,7.2
		c-1.5,2.3-4.7,3-7,1.5c-7.7-5.1-15.3-10.4-25.6-10.4c-8.5,0-15.3,2.3-19.8,6c-4.3,3.4-6.6,7.7-6.6,11.9c0,4.3,1.9,7.2,6,10.4
		c4.7,3.2,11.7,5.8,21.3,7.2h0.4c10,1.5,18.1,4.5,25.4,8.5c6.8,4.5,11.7,12.6,11.7,21.3c0,8.7-4.9,15.8-11.9,21.1
		c-7.2,5.3-15.8,8.3-26,8.3c-16.8-0.2-30-8.1-38.6-14.9C1779.8,558.9,1779.5,556.2,1781.3,554z"/>
	<ellipse class="st1" cx="454.6" cy="352.2" rx="12.7" ry="12.7"/>
	<path class="st0" d="M309.4,313.8c0,8.8,7.1,15.9,15.9,15.9s15.9-7.1,15.9-15.9c0-8.8-7.1-15.9-15.9-15.9S309.4,305,309.4,313.8z"
		/>
	<ellipse class="st0" cx="325.3" cy="354.7" rx="15.9" ry="15.9"/>
	<path class="st0" d="M312.6,393.5c0,7,5.7,12.7,12.7,12.7s12.7-5.7,12.7-12.7c0-7-5.7-12.7-12.7-12.7S312.6,386.4,312.6,393.5z"/>
	<path class="st0" d="M312.6,432.2c0,7,5.7,12.7,12.7,12.7s12.7-5.7,12.7-12.7c0-7-5.7-12.7-12.7-12.7S312.6,425.2,312.6,432.2z"/>
	<path class="st0" d="M312.6,275c0,7,5.7,12.7,12.7,12.7S338,282,338,275c0-7-5.7-12.7-12.7-12.7S312.6,268,312.6,275z"/>
	<path class="st0" d="M441.9,313.1c0,7,5.7,12.7,12.7,12.7c7,0,12.7-5.7,12.7-12.7c0-7-5.7-12.7-12.7-12.7
		C447.5,300.4,441.9,306.1,441.9,313.1z"/>
	<path class="st0" d="M465.7,391.3c0-6.1-5-11.1-11.1-11.1c-6.1,0-11.1,5-11.1,11.1c0,6.1,5,11.1,11.1,11.1
		C460.7,402.4,465.7,397.4,465.7,391.3z"/>
	<path class="st0" d="M465.7,274c0-6.1-5-11.1-11.1-11.1c-6.1,0-11.1,5-11.1,11.1s5,11.1,11.1,11.1
		C460.7,285.1,465.7,280.2,465.7,274z"/>
	<ellipse class="st0" cx="495.1" cy="354.1" rx="11.1" ry="11.1"/>
	<path class="st0" d="M266.3,355.8c0,8.8,7.1,15.9,15.9,15.9s15.9-7.1,15.9-15.9c0-8.8-7.1-15.9-15.9-15.9S266.3,347.1,266.3,355.8z
		"/>
	<path class="st0" d="M266.3,394.9c0,8.8,7.1,15.9,15.9,15.9s15.9-7.1,15.9-15.9c0-8.8-7.1-15.9-15.9-15.9S266.3,386.2,266.3,394.9z
		"/>
	<path class="st0" d="M269.5,434c0,7,5.7,12.7,12.7,12.7c7,0,12.7-5.7,12.7-12.7c0-7-5.7-12.7-12.7-12.7
		C275.2,421.3,269.5,427,269.5,434z"/>
	<path class="st0" d="M269.5,277.7c0,7,5.7,12.7,12.7,12.7s12.7-5.7,12.7-12.7c0-7-5.7-12.7-12.7-12.7S269.5,270.7,269.5,277.7z"/>
	<path class="st0" d="M293.3,238.6c0-6.2-5-11.1-11.1-11.1c-6.1,0-11.1,5-11.1,11.1c0,6.1,5,11.1,11.1,11.1
		C288.3,249.7,293.3,244.7,293.3,238.6z"/>
	<path class="st0" d="M293.3,473.1c0-6.1-5-11.1-11.1-11.1c-6.1,0-11.1,5-11.1,11.1c0,6.1,5,11.1,11.1,11.1
		C288.3,484.2,293.3,479.2,293.3,473.1z"/>
	<path class="st0" d="M223.1,332.6c0,8.8,7.1,15.9,15.9,15.9c8.8,0,15.9-7.1,15.9-15.9c0-8.8-7.1-15.9-15.9-15.9
		C230.2,316.8,223.1,323.9,223.1,332.6z"/>
	<circle class="st0" cx="239" cy="371.7" r="15.9"/>
	<path class="st0" d="M226.3,449.9c0,7,5.7,12.7,12.7,12.7c7,0,12.7-5.7,12.7-12.7c0-7-5.7-12.7-12.7-12.7
		C232,437.2,226.3,442.9,226.3,449.9z"/>
	<path class="st0" d="M226.3,293.6c0,7,5.7,12.7,12.7,12.7c7,0,12.7-5.7,12.7-12.7c0-7-5.7-12.7-12.7-12.7
		C232,280.9,226.3,286.5,226.3,293.6z"/>
	<path class="st0" d="M250.1,254.5c0-6.1-5-11.1-11.1-11.1c-6.1,0-11.1,5-11.1,11.1c0,6.1,5,11.1,11.1,11.1
		C245.1,265.6,250.1,260.6,250.1,254.5z"/>
	<ellipse class="st0" cx="239" cy="489" rx="11.1" ry="11.1"/>
	<path class="st0" d="M180.1,315.9c0,7,5.7,12.7,12.7,12.7c7,0,12.7-5.7,12.7-12.7c0-7-5.7-12.7-12.7-12.7
		C185.8,303.2,180.1,308.9,180.1,315.9z"/>
	<path class="st0" d="M180.1,392.5c0,7,5.7,12.7,12.7,12.7c7,0,12.7-5.7,12.7-12.7c0-7-5.7-12.7-12.7-12.7
		C185.8,379.8,180.1,385.5,180.1,392.5z"/>
	<path class="st0" d="M180.1,430.8c0,7,5.7,12.7,12.7,12.7c7,0,12.7-5.7,12.7-12.7c0-7-5.7-12.7-12.7-12.7
		C185.8,418.1,180.1,423.8,180.1,430.8z"/>
	<path class="st0" d="M203.9,277.5c0-6.1-5-11.1-11.1-11.1c-6.1,0-11.1,5-11.1,11.1c0,6.1,5,11.1,11.1,11.1
		C198.9,288.7,203.9,283.7,203.9,277.5z"/>
	<path class="st0" d="M352.6,311.6c0,8.8,7.1,15.9,15.9,15.9c8.8,0,15.9-7.1,15.9-15.9c0-8.8-7.1-15.9-15.9-15.9
		C359.7,295.8,352.6,302.9,352.6,311.6z"/>
	<path class="st0" d="M352.6,353.3c0,8.8,7.1,15.9,15.9,15.9c8.8,0,15.9-7.1,15.9-15.9s-7.1-15.9-15.9-15.9
		C359.7,337.4,352.6,344.5,352.6,353.3z"/>
	<path class="st0" d="M355.8,274.4c0,7,5.7,12.7,12.7,12.7c7,0,12.7-5.7,12.7-12.7c0-7-5.7-12.7-12.7-12.7
		C361.5,261.7,355.8,267.4,355.8,274.4z"/>
	<path class="st0" d="M379.6,432.2c0-6.1-5-11.1-11.1-11.1c-6.1,0-11.1,5-11.1,11.1s5,11.1,11.1,11.1
		C374.6,443.3,379.6,438.4,379.6,432.2z"/>
	<path class="st0" d="M379.6,234.9c0-6.1-5-11.1-11.1-11.1c-6.1,0-11.1,5-11.1,11.1c0,6.1,5,11.1,11.1,11.1
		C374.6,246.1,379.6,241.1,379.6,234.9z"/>
	<circle class="st0" cx="411.6" cy="329" r="15.9"/>
	<path class="st0" d="M398.9,368.1c0,7,5.7,12.7,12.7,12.7c7,0,12.7-5.7,12.7-12.7c0-7-5.7-12.7-12.7-12.7
		C404.5,355.3,398.9,361,398.9,368.1z"/>
	<path class="st0" d="M422.7,407.1c0-6.1-5-11.1-11.1-11.1c-6.1,0-11.1,5-11.1,11.1c0,6.1,5,11.1,11.1,11.1
		C417.7,418.2,422.7,413.3,422.7,407.1z"/>
	<path class="st0" d="M422.7,250.8c0-6.1-5-11.1-11.1-11.1c-6.1,0-11.1,5-11.1,11.1c0,6.1,5,11.1,11.1,11.1
		C417.7,261.9,422.7,257,422.7,250.8z"/>
	<path class="st0" d="M165,375.3c0-6.1-5-11.1-11.1-11.1c-6.1,0-11.1,5-11.1,11.1c0,6.1,5,11.1,11.1,11.1
		C160,386.4,165,381.4,165,375.3z"/>
	<path class="st0" d="M165,414.3c0-6.1-5-11.1-11.1-11.1c-6.1,0-11.1,5-11.1,11.1c0,6.1,5,11.1,11.1,11.1
		C160,425.4,165,420.5,165,414.3z"/>
	<path class="st1" d="M165,336.2c0-6.1-5-11.1-11.1-11.1c-6.1,0-11.1,5-11.1,11.1c0,6.1,5,11.1,11.1,11.1
		C160,347.3,165,342.3,165,336.2z"/>
	<path class="st2" d="M231.3,396.1c0.3,0,0.7,0,1,0c0.1,0,0.1,0.1,0.2,0.1c2,0.2,3.8,0.9,5.4,2.2c0.4,0.3,0.8,0.7,1.2,1.1
		c0-0.1,0.1-0.2,0.1-0.2c1.3-1.5,2.9-2.4,4.8-2.9c0.5-0.1,1.1-0.2,1.7-0.3c0.3,0,0.7,0,1,0c0.3,0,0.5,0.1,0.8,0.1
		c3.5,0.5,6.4,3.1,7.2,6.6c0.1,0.4,0.2,0.8,0.2,1.3c0,0.6,0,1.1,0,1.7c-0.1,0.6-0.2,1.2-0.4,1.8c-0.6,2.1-1.7,3.9-3,5.6
		c-1.7,2.1-3.6,3.9-5.5,5.8c-2.3,2.2-4.8,4.2-7,6.5c0,0,0,0-0.2,0.1c0-0.1-0.1-0.2-0.2-0.3c-0.7-0.7-1.3-1.4-2-2
		c-1.7-1.6-3.5-3.1-5.2-4.7c-2-1.8-3.9-3.7-5.5-5.9c-1.2-1.6-2.2-3.3-2.7-5.3c-0.1-0.5-0.2-1-0.3-1.5c0-0.6,0-1.1,0-1.7
		c0-0.2,0.1-0.5,0.1-0.7c0.5-3.4,3.2-6.3,6.6-7C230.3,396.3,230.8,396.2,231.3,396.1z"/>
	<rect x="356.4" y="380.6" class="st3" width="24.3" height="24.3"/>
	<polygon class="st4" points="411.6,278.7 418,289.9 424.4,301.1 411.6,301.1 398.7,301.1 405.1,289.9 	"/>
	<polygon class="st4" points="282.2,302.3 290.5,316.8 298.9,331.2 282.2,331.2 265.5,331.2 273.8,316.8 	"/>
	<rect x="180.6" y="342" class="st3" width="24.3" height="24.3"/>
	<rect x="313.2" y="226.3" class="st3" width="24.3" height="24.3"/>
	<path class="st2" d="M489.5,309.8c0.2,0,0.5,0,0.7,0c0,0,0.1,0,0.1,0c1.5,0.1,2.8,0.7,3.9,1.6c0.3,0.2,0.5,0.5,0.9,0.8
		c0-0.1,0.1-0.1,0.1-0.2c1-1.1,2.1-1.8,3.5-2.1c0.4-0.1,0.8-0.1,1.2-0.2c0.2,0,0.5,0,0.7,0c0.2,0,0.4,0.1,0.6,0.1
		c2.6,0.4,4.6,2.2,5.2,4.8c0.1,0.3,0.1,0.6,0.2,0.9c0,0.4,0,0.8,0,1.2c-0.1,0.4-0.1,0.9-0.3,1.3c-0.4,1.5-1.2,2.9-2.2,4.1
		c-1.2,1.5-2.6,2.9-4,4.2c-1.7,1.6-3.5,3-5,4.7c0,0,0,0-0.1,0c0-0.1-0.1-0.1-0.1-0.2c-0.5-0.5-1-1-1.5-1.5c-1.3-1.1-2.5-2.3-3.8-3.4
		c-1.4-1.3-2.8-2.7-4-4.3c-0.9-1.2-1.6-2.4-2-3.9c-0.1-0.4-0.1-0.7-0.2-1.1c0-0.4,0-0.8,0-1.2c0-0.2,0.1-0.3,0.1-0.5
		c0.4-2.5,2.4-4.6,4.8-5.1C488.8,309.9,489.1,309.8,489.5,309.8z"/>
	<polygon class="st4" points="191.5,458.6 197.6,469.1 203.6,479.6 191.5,479.6 179.4,479.6 185.5,469.1 	"/>
	<g>
		<g>
			<path class="st0" d="M376.6,712.8c0.9,0,1.7,0.2,2.7,0.3c3.3,0.9,5.1,2.7,5.1,5.5c0,0.7,0,1.2-0.2,1.7
				c-3.6,15.2-10.4,30.8-18.5,41.9c-1.5,2.1-3.6,3.1-5.6,3.1c-1.4,0-2.9-0.5-4.1-1.4c-2.2-1.4-3.6-3.4-3.6-5.6
				c0-1.2,0.3-2.4,1.4-3.6c7.5-9.4,14.2-23.6,17.3-37.8C371.7,714.3,373.9,712.8,376.6,712.8z M477.6,622.9c11,0,15.6,3.9,15.6,13.2
				v50.3c0,9.2-4.6,13-15.6,13H385c-11,0-15.6-3.8-15.6-13v-50.3c0-9.2,4.6-13.2,15.6-13.2H477.6z M387.4,634.4
				c-3.4,0-5.1,0.9-5.1,3.9v16.9h41.9v-20.9H387.4z M424.2,666.7h-41.9v17.6c0,3.1,1.7,3.9,5.1,3.9h36.8V666.7z M396.7,715.2
				c0-2.9,2.7-4.8,6.5-4.8c3.9,0,6.8,1.9,6.8,4.8v37c0,5.8,2.9,6.7,27,6.7c18.8,0,22.6-1.4,24.3-4.8c1.5-2.7,2.2-7.5,2.6-12.8
				c0.2-2.6,2.2-4.5,5.6-4.5c0.3,0,0.7,0,1.2,0c3.6,0.3,5.6,2.6,5.6,5.5c0,0.3,0,0.5,0,0.7c-0.5,8.7-2.4,16.1-5,20
				c-1.4,1.9-3.3,3.3-5.8,4.3c-5.3,2.4-14.6,3.4-26.7,3.4c-2.4,0-5,0-7.5-0.2c-30.6-0.3-34.8-3.1-34.8-14.7V715.2z M429.7,705.6
				c1.5,0,2.9,0.5,4.1,1.7c6.5,5.8,14,14.4,19.3,22.1c0.7,1,1,2.2,1,3.4c0,2.1-1,4.1-2.9,5.3c-1.5,1.2-3.1,1.7-4.8,1.7
				c-1.7,0-3.4-0.9-4.5-2.6c-4.8-7.5-11.5-15.1-18.3-21.9c-0.9-0.9-1.2-1.9-1.2-3.1c0-1.7,0.9-3.6,2.6-4.8
				C426.6,706.3,428.2,705.6,429.7,705.6z M480.4,638.3c0-3.1-1.7-3.9-5-3.9h-38.7v20.9h43.7V638.3z M475.4,688.3c3.3,0,5-0.9,5-3.9
				v-17.6h-43.7v21.6H475.4z M480.4,711.2c2.1,0,3.8,0.9,5.1,2.6c9.6,12.3,18,26,23.6,38.9c0.5,1,0.7,2.2,0.7,3.3
				c0,2.6-1.5,4.8-4.1,6c-1.4,0.5-2.6,0.9-3.6,0.9c-2.6,0-4.6-1.4-5.8-4.3c-4.6-10.8-12.8-25.3-22.3-37.7c-0.7-1-1-2.1-1-3.1
				c0-2.1,1.4-4.1,3.6-5.3C477.8,711.6,479.2,711.2,480.4,711.2z"/>
			<path class="st0" d="M551.2,702.5c-8.2,0.7-16.3,1.2-23.6,1.4c-3.3,0-5.5-1.7-5.6-5.6c0-3.9,1.9-5.8,5.3-5.8c2.6,0,5.3,0,8.2-0.2
				c4.5-5.5,8.6-11.1,12.7-16.9c-6.7-8.7-15.4-18.5-22.3-25.2c-1.2-1.2-1.7-2.6-1.7-3.9c0-1.4,0.5-2.7,1.7-4.1
				c1.4-1.4,3.1-2.2,4.6-2.2c1.2,0,2.2,0.3,2.9,1.2c1.4,1.4,2.7,2.7,4.1,4.1c5.6-8.2,11-17.5,14.7-26.2c1-1.9,2.7-2.9,4.6-2.9
				c1,0,2.1,0.2,2.9,0.7c2.4,1,3.8,2.7,3.8,5.1c0,0.7-0.2,1.7-0.7,2.6c-4.1,8.9-10.3,18.8-17.6,29.1c3.4,3.9,6.5,7.9,9.6,12
				c6.3-9.6,12-18.8,16.3-26.9c1.2-2.1,2.9-3.3,4.8-3.3c1,0,2.2,0.3,3.3,1c2.4,1,3.4,2.7,3.4,5c0,1-0.2,2.1-0.7,3.1
				c-8.6,14.6-22.1,33.7-33,47.2c8.4-0.5,16.6-1.4,24.8-2.2c-1.9-3.8-3.8-7.7-5.8-11c-0.3-0.5-0.5-1.2-0.5-1.7
				c0-1.7,1.2-3.4,3.3-4.6c0.7-0.5,1.5-0.7,2.4-0.7c1.7,0,3.4,0.9,4.3,2.4c4.5,7.9,9.2,17.1,12.3,25.8c0.2,0.7,0.3,1.4,0.3,1.9
				c0,2.1-1.4,3.6-3.6,4.5c-0.9,0.3-1.7,0.5-2.6,0.5c-1.9,0-3.4-0.9-4.1-2.7c-0.5-1.4-1-2.9-1.7-4.5c-3.1,0.5-6.3,0.9-9.4,1.2
				c-1.7,0.3-3.3,0.5-5,0.7v69.3c0,2.9-2.4,4.6-6.2,4.6c-3.6,0-6.2-1.7-6.2-4.6V702.5z M542.3,717.9c0,0.2,0,0.3,0,0.5
				c-1.4,13.5-4.1,30.1-8.6,42.3c-1,2.6-3.3,3.8-5.6,3.8c-0.9,0-1.5-0.2-2.2-0.3c-2.4-0.9-3.9-2.6-3.9-5.1c0-0.9,0.2-1.9,0.7-2.9
				c4.1-10.1,7-26,8.2-39.2c0.2-2.6,2.6-3.9,5.5-3.9c0.2,0,0.3,0,0.5,0C539.7,713.1,542.3,715,542.3,717.9z M576.9,712.4
				c2.2,0,3.9,1,4.6,3.4c2.7,9.8,5.1,23.1,6.5,33.4c0,0.3,0,0.7,0,1c0,2.7-2.1,4.5-5.1,4.8c-0.3,0.2-0.9,0.2-1.2,0.2
				c-2.6,0-4.6-1.5-5-4.6c-1.2-9.9-3.4-22.9-5.8-32c-0.2-0.5-0.2-0.9-0.2-1.4c0-2.4,1.9-4.1,4.5-4.6
				C575.8,712.4,576.3,712.4,576.9,712.4z M677.2,758.5c2.7,0,4.5,2.2,4.5,5.6c0,3.8-1.7,6-4.5,6h-65.9c-9.9,0-14.6-4.3-14.6-14.6
				v-52.2c0-10.6,0.5-22.6,1.7-31.7c-1.7,2.6-3.4,5-5.1,7.2c-1.2,1.4-2.6,2.2-4.3,2.2c-1.4,0-2.7-0.5-3.9-1.9
				c-1.5-1.4-2.2-3.1-2.2-4.8c0-1.4,0.5-2.7,1.4-3.8c11.6-13.2,20.7-30.6,26.7-49.6c0.9-2.7,2.9-3.9,5.5-3.9c0.7,0,1.5,0,2.2,0.3
				c3.1,0.5,4.6,2.4,4.6,5c0,0.9-0.2,1.7-0.5,2.7c-2.2,6.5-5.3,13.5-8.9,20.5c2.1-0.2,3.9-0.2,5.8-0.2h16.8
				c4.1-8.2,7.5-16.3,9.8-23.3c1-2.7,2.9-3.9,5.5-3.9c0.7,0,1.7,0.2,2.6,0.3c2.7,0.7,4.6,2.2,4.6,4.6c0,0.7-0.2,1.4-0.5,2.1
				c-2.4,7.5-6,14.9-8.9,20.2h26.7c2.7,0,4.5,2.2,4.5,5.8c0,3.4-1.7,5.8-4.5,5.8h-27.9v24.5h23.6c2.7,0,4.5,2.2,4.5,5.5
				c0,3.4-1.7,5.6-4.5,5.6h-23.6v25.7H672c2.7,0,4.5,2.1,4.5,5.5c0,3.4-1.7,5.6-4.5,5.6h-23.8v28.9H677.2z M614.3,657.1
				c-3.8,0-5.3,1.2-5.3,5v19.5h27.2v-24.5H614.3z M636.3,718.4v-25.7H609v25.7H636.3z M609,753.3c0,3.9,1.5,5.1,5.3,5.1h21.9v-28.9
				H609V753.3z"/>
		</g>
	</g>
</g>
</svg>
