<?xml version="1.0" encoding="utf-8"?>
<!-- Generator: Adobe Illustrator 20.1.0, SVG Export Plug-In . SVG Version: 6.00 Build 0)  -->
<svg version="1.1" id="Layer_1" xmlns="http://www.w3.org/2000/svg" xmlns:xlink="http://www.w3.org/1999/xlink" x="0px" y="0px"
	 viewBox="0 0 36 36" style="enable-background:new 0 0 36 36;" xml:space="preserve">
<style type="text/css">
	.st0{fill:#f8cf1c;}
</style>
<path class="st0" d="M28.9,22.9c-1.6-1.2-3.3-2.7-4-3.4c0.7-0.9,2.5-3.3,3.2-5.2c0.1-0.2,0-0.4-0.1-0.5c-0.1-0.1-0.3-0.2-0.5-0.1
	c-1.9,0.6-4.9,0.6-7,0.5l0-1.1h0v-2c0-0.2-0.1-0.3-0.2-0.4c-1.8-1.4-6.1-1.9-9.5-1.5V9.1c0-1.1-0.9-2-2-2c-1.1,0-2,0.9-2,2V11v0.1
	v8.6v1v8.1h1v-7.8c0.6-0.2,1.3-0.4,2-0.6v8.4h1v-8.5c2.7-0.4,5.9-0.2,8.4,0.9c0,0,0,0,0.1,0l-1.8,1.8v-1.8v0l-0.6,0h-0.5h0l0,2v0.5
	c0,0.1,0,0.2,0.1,0.3c0.7,1,2.4,1.3,4.4,1.3c2.9,0,6.3-0.8,7.9-1.7c0.1-0.1,0.2-0.2,0.3-0.4C29.1,23.2,29,23,28.9,22.9z M7.7,9.1
	c0-0.6,0.5-1,1-1c0.6,0,1,0.5,1,1v0.3c-0.8,0.2-1.5,0.4-2,0.7V9.1z M13.4,19.2c-2.1,0-4.1,0.3-5.6,0.8v-0.3v-8.5
	c2-1.6,9.2-1.5,11.7,0.1v8.9C17.6,19.5,15.4,19.2,13.4,19.2z M17.9,24l2.4-2.3c0.1-0.1,0.1-0.2,0.1-0.4l0-6c1.9,0.1,4.3,0,6.2-0.3
	c-1,2-2.9,4.3-2.9,4.3c-0.2,0.2-0.2,0.5,0,0.7c0.1,0.1,1.9,1.8,3.8,3.3C24.9,24.4,19.8,24.9,17.9,24z"/>
</svg>
