<?xml version="1.0" encoding="utf-8"?>
<!-- Generator: Adobe Illustrator 20.1.0, SVG Export Plug-In . SVG Version: 6.00 Build 0)  -->
<svg version="1.1" id="Layer_1" xmlns="http://www.w3.org/2000/svg" xmlns:xlink="http://www.w3.org/1999/xlink" x="0px" y="0px"
	 viewBox="0 0 36 36" style="enable-background:new 0 0 36 36;" xml:space="preserve">
<style type="text/css">
	.st0{fill:#1E3E5B;}
</style>
<g>
	<g>
		<path class="st0" d="M20.4,23c-0.3,0.3-0.6,0.5-0.9,0.7l-0.6-1.8l1.4-0.7c0.2-0.1,0.3-0.3,0.4-0.5c0-0.2,0-0.4-0.2-0.6
			c0,0-1.7-1.9-1.3-8.1c0-0.4-0.3-0.7-0.7-0.7c-0.4,0-0.7,0.3-0.7,0.7c-0.3,4.8,0.5,7.3,1.2,8.4l-1.2,0.6c-0.3,0.2-0.5,0.5-0.4,0.9
			l0.8,2.2c-0.6-0.1-1.1-0.4-1.6-0.9c-0.3-0.3-0.7-0.3-1,0c-0.3,0.3-0.3,0.7,0,1c0.9,0.9,1.9,1.3,3,1.3s2.1-0.4,3-1.3
			c0.3-0.3,0.3-0.7,0-1S20.6,22.7,20.4,23z"/>
		<circle class="st0" cx="16.1" cy="16" r="0.6"/>
		<circle class="st0" cx="20.7" cy="16" r="0.6"/>
		<path class="st0" d="M31.4,15c0-1.7-1.3-3.2-3-3.4c-0.3-1.2-1.4-2.1-2.7-2.1c-0.3,0-0.5,0-0.8,0.1C24,6.9,21.4,5,18.4,5
			c-3,0-5.6,1.9-6.5,4.6c-0.2-0.1-0.5-0.1-0.8-0.1c-1.3,0-2.4,0.9-2.7,2.1c-1.7,0.2-3,1.7-3,3.4c0,1.7,1.3,3.1,2.9,3.4
			c0,0.1,0,0.2,0,0.3c0,1.9,1.3,3.4,3.1,3.7v1.8c0,3.8,3.1,6.9,6.9,6.9c3.8,0,6.9-3.1,6.9-6.9v-1.8c1.8-0.3,3.1-1.9,3.1-3.7
			c0-0.1,0-0.2,0-0.3C30.1,18.1,31.4,16.7,31.4,15z M8.7,17c-1.1-0.1-1.9-1-1.9-2c0-1.1,0.9-2,2-2c0,0,0.1,0,0.1,0
			c0.2,0,0.4-0.1,0.5-0.2c0.1-0.1,0.2-0.3,0.2-0.5c0,0,0,0,0,0c0-0.7,0.6-1.3,1.3-1.3c0.1,0,0.3,0,0.4,0.1c0,0,0,0.1,0,0.1
			c0,0.1,0,0.2,0,0.2c0,0.2,0,0.4,0,0.6v3c0,0,0,0,0,0c-0.1,0-0.2,0.1-0.4,0.1c0,0-0.1,0-0.1,0c-0.1,0-0.2,0.1-0.2,0.1
			c-0.1,0-0.1,0-0.2,0.1c-0.1,0-0.1,0.1-0.2,0.1c-0.1,0-0.2,0.1-0.3,0.2c0,0-0.1,0.1-0.1,0.1c-0.1,0-0.1,0.1-0.2,0.1
			c0,0-0.1,0.1-0.1,0.1c-0.1,0.1-0.1,0.1-0.2,0.2c-0.1,0.1-0.2,0.2-0.2,0.2c0,0-0.1,0.1-0.1,0.1c0,0.1-0.1,0.1-0.1,0.2
			c0,0-0.1,0.1-0.1,0.1C8.9,16.7,8.8,16.8,8.7,17C8.7,17,8.7,17,8.7,17z M24.7,21c-0.4,0-0.7,0.3-0.7,0.7v2.4c0,3.1-2.5,5.5-5.5,5.5
			c-3.1,0-5.5-2.5-5.5-5.5v-2.4c0-0.4-0.3-0.7-0.7-0.7c-1.3,0-2.4-1.1-2.4-2.4c0-0.3,0.1-0.6,0.2-0.8c0-0.1,0-0.1,0.1-0.2
			c0-0.1,0.1-0.2,0.1-0.3c0,0,0-0.1,0.1-0.1c0.2-0.2,0.4-0.4,0.6-0.6c0,0,0,0,0.1,0c0.1-0.1,0.2-0.1,0.3-0.2c0,0,0.1,0,0.1,0
			c0.1,0,0.2-0.1,0.3-0.1c0,0,0.1,0,0.1,0c0.1,0,0.3,0,0.4,0c0.4,0,0.7-0.3,0.7-0.7v-3.6c0-0.4,0-0.8,0.1-1.2
			c0.5-2.5,2.8-4.4,5.4-4.4c2.7,0,4.9,1.9,5.4,4.4c0,0.1,0,0.2,0,0.3c0,0.3,0.1,0.6,0.1,0.9v3.6c0,0.4,0.3,0.7,0.7,0.7
			c0.2,0,0.3,0,0.4,0c0,0,0.1,0,0.1,0c0.1,0,0.2,0.1,0.3,0.1c0,0,0.1,0,0.1,0c0.1,0.1,0.2,0.1,0.3,0.2c0,0,0,0,0,0
			c0.3,0.2,0.5,0.4,0.6,0.6c0,0,0,0,0,0c0.1,0.1,0.1,0.2,0.2,0.3c0,0,0,0.1,0,0.1c0.1,0.3,0.2,0.6,0.2,0.9C27.1,20,26,21,24.7,21z
			 M28.1,17c0-0.1-0.1-0.1-0.1-0.2c0,0,0-0.1-0.1-0.1c0-0.1-0.1-0.2-0.2-0.2c0,0,0,0,0,0c-0.2-0.3-0.4-0.5-0.6-0.7c0,0,0,0,0,0
			c-0.1-0.1-0.2-0.1-0.2-0.2c0,0,0,0,0,0c-0.2-0.1-0.3-0.2-0.5-0.3c0,0,0,0-0.1,0c-0.1,0-0.1-0.1-0.2-0.1c-0.1,0-0.1,0-0.2-0.1
			c-0.1,0-0.1,0-0.2-0.1c-0.1,0-0.2-0.1-0.3-0.1c0,0-0.1,0-0.1,0v-3c0-0.2,0-0.4,0-0.7c0,0,0-0.1,0-0.1c0-0.1,0-0.1,0-0.2
			c0.1,0,0.3-0.1,0.4-0.1c0.7,0,1.3,0.6,1.3,1.3c0,0,0,0,0,0c0,0.2,0.1,0.4,0.2,0.5c0.1,0.1,0.3,0.2,0.5,0.2c0,0,0.1,0,0.1,0
			c1.1,0,2,0.9,2,2C30,16,29.1,16.9,28.1,17z"/>
	</g>
</g>
</svg>
